<svg width="24" height="28" viewBox="0 0 24 28" fill="none" xmlns="http://www.w3.org/2000/svg">
<g filter="url(#filter0_d_931_14746)">
<path d="M8.239 7.03303C8.21081 7.14732 8.0948 7.24003 7.97893 7.24003H5.73692C5.33 7.24003 5 7.57425 5 7.98662C5 8.32724 5.22498 8.61443 5.53248 8.70418L5.91722 19.4272C5.94865 20.3005 6.66456 21 7.52761 21H14.4724C15.3341 21 16.0515 20.2988 16.0828 19.4272L16.4675 8.70418C16.775 8.61445 17 8.32724 17 7.98662C17 7.57427 16.67 7.24003 16.2631 7.24003H14.0211C13.9056 7.24003 13.7889 7.14628 13.761 7.03303L13.6033 6.39391C13.4084 5.60419 12.6458 5 11.8428 5H10.1569C9.35396 5 8.59133 5.60389 8.39648 6.39391L8.239 7.03303ZM11.5264 10.6533V17.9066C11.5264 18.2011 11.2907 18.4399 11.0001 18.4399C10.7095 18.4399 10.4738 18.2011 10.4738 17.9066V10.6533C10.4738 10.3588 10.7095 10.1199 11.0001 10.1199C11.2907 10.1199 11.5264 10.3588 11.5264 10.6533ZM13.9473 10.669L13.7367 17.9224C13.7282 18.2169 13.4858 18.4484 13.1951 18.4398C12.9047 18.4312 12.676 18.1855 12.6845 17.891L12.8951 10.6376C12.9036 10.3433 13.1461 10.1116 13.4367 10.1202C13.7272 10.1289 13.9558 10.3746 13.9473 10.669ZM9.10518 10.6376L9.31576 17.891C9.32428 18.1855 9.09563 18.4312 8.80516 18.4398C8.51454 18.4484 8.27207 18.2169 8.26358 17.9224L8.05299 10.669C8.04447 10.3745 8.27312 10.1288 8.56359 10.1202C8.85421 10.1116 9.09668 10.3433 9.10518 10.6376ZM12.1887 7.24H9.81168C9.75412 7.24 9.71843 7.19401 9.73238 7.13732L9.82637 6.75606C9.85735 6.63046 10.0306 6.49326 10.1572 6.49326H11.8431C11.9694 6.49326 12.143 6.63076 12.174 6.75606L12.2679 7.13732C12.2823 7.19535 12.2465 7.24 12.1887 7.24Z" fill="url(#paint0_linear_931_14746)"/>
</g>
<defs>
<filter id="filter0_d_931_14746" x="0.169491" y="0.169491" width="23.5932" height="27.5932" filterUnits="userSpaceOnUse" color-interpolation-filters="sRGB">
<feFlood flood-opacity="0" result="BackgroundImageFix"/>
<feColorMatrix in="SourceAlpha" type="matrix" values="0 0 0 0 0 0 0 0 0 0 0 0 0 0 0 0 0 0 127 0" result="hardAlpha"/>
<feOffset dx="0.966102" dy="0.966102"/>
<feGaussianBlur stdDeviation="2.89831"/>
<feComposite in2="hardAlpha" operator="out"/>
<feColorMatrix type="matrix" values="0 0 0 0 0 0 0 0 0 0 0 0 0 0 0 0 0 0 0.15 0"/>
<feBlend mode="normal" in2="BackgroundImageFix" result="effect1_dropShadow_931_14746"/>
<feBlend mode="normal" in="SourceGraphic" in2="effect1_dropShadow_931_14746" result="shape"/>
</filter>
<linearGradient id="paint0_linear_931_14746" x1="11" y1="5" x2="11" y2="21" gradientUnits="userSpaceOnUse">
<stop stop-color="#292929"/>
<stop offset="1" stop-color="#1D1D1D"/>
</linearGradient>
</defs>
</svg>
