<svg width="382" height="190" viewBox="0 0 382 190" fill="none" xmlns="http://www.w3.org/2000/svg">
    <g filter="url(#filter0_di_1365_21512)">
        <rect x="11" y="8" width="360" height="168" rx="15" fill="url(#paint0_linear_1365_21512)"/>
        <path d="M241.767 108.87C238.551 109.592 230.085 110.008 230.085 110.008L229.012 113.289C229.012 113.289 233.235 112.94 236.317 113.245C236.317 113.245 237.322 113.136 237.434 114.361C237.455 115.15 237.425 115.939 237.345 116.724C237.345 116.724 237.278 117.468 236.206 117.643C235.043 117.839 227.091 118.124 227.091 118.124L225.795 122.389C225.795 122.389 225.326 123.374 226.399 123.089C227.404 122.827 235.736 121.296 236.831 121.515C237.992 121.799 239.288 123.308 238.908 124.708C238.462 126.415 230.152 131.621 225.081 131.249C225.081 131.249 222.423 131.424 220.167 127.902C218.067 124.555 220.971 118.189 220.971 118.189C220.971 118.189 219.653 115.214 220.614 114.23C220.614 114.23 221.195 113.727 222.848 113.596L224.881 109.461C224.881 109.461 222.558 109.614 221.173 107.951C219.878 106.354 219.788 105.632 220.771 105.195C221.821 104.692 231.493 102.963 238.15 103.182C238.15 103.182 240.473 102.963 242.461 106.901C242.438 106.901 243.421 108.498 241.767 108.87ZM216.726 124.752C215.876 126.721 213.621 128.821 210.829 127.509C208.06 126.196 203.658 117.38 203.658 117.38C203.658 117.38 201.983 114.099 201.67 114.164C201.67 114.164 201.314 113.53 201.09 117.118C200.865 120.706 201.134 127.684 199.682 128.778C198.297 129.872 196.622 129.434 195.751 128.143C194.969 126.875 194.634 123.856 195.058 118.562C195.572 113.268 196.823 107.624 198.431 105.852C200.039 104.102 201.335 105.371 201.826 105.83C201.826 105.83 203.971 107.734 207.523 113.334L208.148 114.362C208.148 114.362 211.365 119.656 211.7 119.634C211.7 119.634 211.968 119.875 212.191 119.7C212.526 119.612 212.392 117.906 212.392 117.906C212.392 117.906 211.722 112.152 208.796 102.396C208.537 101.634 208.491 100.818 208.662 100.033C208.952 98.8734 210.136 99.4204 210.136 99.4204C210.136 99.4204 214.693 101.652 216.881 108.914C219.05 116.242 217.576 122.783 216.726 124.752ZM194.343 106.092C193.963 106.836 193.74 107.908 191.819 108.192C191.819 108.192 173.435 109.417 172.564 110.686C172.564 110.686 171.916 111.43 172.92 111.648C173.925 111.845 178.08 112.392 180.09 112.502C182.235 112.524 189.473 112.589 192.064 115.761C192.064 115.761 193.605 117.27 193.538 120.683C193.471 124.183 192.846 125.409 191.461 126.677C190.007 127.858 177.544 133.327 169.502 124.927C169.502 124.927 165.794 120.88 170.775 117.817C170.775 117.817 174.372 115.696 183.508 118.189C183.508 118.189 186.278 119.173 186.144 120.158C185.988 121.208 183.866 122.324 180.783 122.258C177.79 122.171 175.6 120.77 176.025 120.989C176.427 121.142 172.808 119.283 171.693 120.552C170.576 121.711 170.842 122.433 171.939 123.155C174.731 124.708 185.521 124.161 188.738 120.661C188.738 120.661 190.011 119.238 188.068 118.08C186.124 116.986 180.562 116.33 178.395 116.22C176.317 116.111 168.589 116.242 167.471 114.23C167.471 114.23 166.355 112.873 167.583 109.023C168.879 104.998 177.881 103.445 181.768 103.095C181.768 103.095 192.468 102.723 194.433 104.867C194.566 105.272 194.534 105.711 194.343 106.092ZM163.963 129.695C162.668 130.635 159.92 130.22 159.137 129.17C158.355 128.231 158.087 124.489 158.244 118.626C158.4 112.698 158.534 105.348 159.83 104.189C161.215 103.007 162.064 104.035 162.599 104.845C163.18 105.632 163.872 106.507 164.029 108.367C164.163 110.226 164.61 119.983 164.61 119.983C164.61 119.983 165.192 128.777 163.963 129.696V129.695ZM166.756 98.2386C162.981 99.4636 160.389 99.048 158.201 98.1293C157.241 99.7698 156.682 100.273 155.945 100.383C154.872 100.492 153.912 98.8074 153.733 98.2612C153.554 97.8455 153.04 97.1455 153.666 95.483C151.521 93.6018 151.365 91.0642 151.722 89.358C152.258 87.3892 155.877 79.9079 166.89 79.0327C166.89 79.0327 172.274 78.6391 173.19 81.461H173.346C173.346 81.461 178.573 81.4827 178.461 86.0329C178.393 90.6042 172.653 96.2918 166.756 98.2386ZM156.48 88.1102C155.363 89.8602 155.319 90.9104 155.832 91.6321C157.106 89.7288 159.429 86.7318 162.846 84.4569C160.211 84.6758 157.999 85.7915 156.48 88.1105V88.1102ZM171.693 85.179C168.23 85.6822 162.869 90.2321 160.322 93.9511C164.231 94.6512 171.134 94.3885 174.194 88.2853C174.172 88.2853 175.646 84.501 171.693 85.179ZM265.692 120.421C263.614 123.965 257.784 131.358 250.01 129.631C247.441 135.735 245.297 141.882 244.068 151.113C244.068 151.113 243.8 152.907 242.281 152.273C240.785 151.748 238.283 149.297 237.791 145.907C237.255 141.444 239.288 133.897 243.421 125.257C242.214 123.332 241.388 120.576 242.103 116.66C242.103 116.66 243.152 109.397 250.591 102.835C250.591 102.835 251.485 102.069 251.998 102.31C252.579 102.551 252.311 104.913 251.842 106.051C251.373 107.188 248.044 112.832 248.044 112.832C248.044 112.832 245.967 116.638 246.548 119.635C250.457 113.751 259.348 101.873 264.865 105.613C266.718 106.904 267.568 109.726 267.568 112.767C267.546 115.455 266.898 118.299 265.692 120.421ZM264.083 111.103C264.083 111.103 263.771 108.762 261.447 111.345C259.437 113.51 255.818 117.601 252.892 123.136C255.953 122.808 258.901 121.167 259.795 120.336C261.246 119.064 264.62 115.652 264.083 111.102V111.103ZM155.631 114.078C155.207 119.372 153.129 128.275 138.408 132.672C128.691 135.538 119.51 134.16 114.506 132.914C114.395 134.861 114.171 135.692 113.858 136.02C113.434 136.436 110.262 138.23 108.52 135.692C107.738 134.489 107.336 132.301 107.112 130.354C95.8536 125.279 90.6712 117.973 90.4702 117.645C90.2234 117.403 87.6558 114.779 90.2234 111.563C92.6364 108.654 100.521 105.744 107.625 104.563C107.872 98.6127 108.585 94.1283 109.435 92.072C110.462 89.6875 111.758 91.8303 112.875 93.45C113.813 94.6533 114.372 99.8377 114.416 103.972C119.063 103.753 121.81 104.081 126.992 105C133.738 106.203 138.251 109.572 137.849 113.401C137.559 117.163 134.029 118.717 132.689 118.825C131.282 118.934 129.092 117.95 129.092 117.95C127.595 117.25 128.98 116.637 130.79 115.872C132.756 114.932 132.309 113.968 132.309 113.968C131.572 111.868 122.815 110.403 114.102 110.403C114.057 115.106 114.303 122.916 114.415 127.466C117.923 128.144 121.495 128.452 125.07 128.384C125.07 128.384 147.319 127.772 147.989 113.859C148.682 99.9242 125.806 86.5581 108.897 82.3144C92.0093 77.9831 82.4484 81.0018 81.622 81.4175C80.7284 81.8549 81.5548 81.9862 81.5548 81.9862C82.4055 82.1383 83.2422 82.3577 84.0566 82.6425C85.732 83.1675 84.4364 84.0206 84.4364 84.0206C81.5548 84.9174 78.3157 84.3487 77.691 83.0582C77.0664 81.7676 78.1155 80.6082 79.3217 78.9455C80.5282 77.1955 81.846 77.261 81.846 77.261C102.732 70.172 128.176 82.9924 128.176 82.9924C152.013 94.8262 156.078 108.695 155.631 114.077V114.078ZM92.5922 113.356C90.2242 114.494 91.8552 116.134 91.8552 116.134C96.3005 120.816 101.773 123.747 106.978 125.563C107.581 117.491 107.492 114.647 107.559 110.579C99.4281 111.123 94.737 112.392 92.5928 113.355L92.5922 113.356Z" fill="white"/>
        <path d="M309.922 111.693V114.581C309.923 114.731 309.893 114.879 309.835 115.017C309.777 115.156 309.692 115.282 309.584 115.388C309.476 115.493 309.347 115.577 309.206 115.634C309.064 115.691 308.913 115.719 308.76 115.718H294.709C294.709 116.44 294.732 117.075 294.732 117.665C294.751 121.56 294.55 125.452 294.128 129.325C294.101 129.604 293.97 129.863 293.76 130.053C293.55 130.243 293.275 130.35 292.989 130.353H289.951C289.799 130.354 289.649 130.323 289.511 130.262C289.372 130.202 289.248 130.114 289.147 130.004C289.043 129.893 288.965 129.761 288.919 129.617C288.873 129.473 288.859 129.321 288.879 129.172C289.306 125.351 289.515 121.509 289.504 117.665C289.504 117.053 289.504 116.418 289.481 115.718H275.588C275.435 115.719 275.283 115.691 275.142 115.634C275.001 115.577 274.872 115.493 274.764 115.388C274.656 115.282 274.571 115.156 274.513 115.017C274.454 114.879 274.425 114.731 274.426 114.581V111.693C274.425 111.544 274.454 111.395 274.513 111.257C274.571 111.118 274.656 110.993 274.764 110.887C274.872 110.781 275.001 110.697 275.142 110.64C275.283 110.584 275.435 110.555 275.588 110.556H289.281C289.004 105.912 288.399 101.292 287.471 96.7304C287.447 96.5926 287.452 96.4514 287.487 96.3158C287.521 96.1802 287.584 96.0532 287.672 95.9428C287.76 95.834 287.872 95.7462 288 95.6858C288.128 95.6253 288.268 95.5938 288.409 95.5937H291.693C291.942 95.5947 292.183 95.6803 292.374 95.8359C292.566 95.9915 292.696 96.2075 292.743 96.4468C293.646 101.108 294.243 105.821 294.53 110.556H308.761C309.067 110.562 309.359 110.683 309.575 110.895C309.792 111.108 309.916 111.394 309.922 111.693Z" fill="white"/>
        <path d="M290.8 88.7881C284.087 72.6209 273.002 58.5511 258.736 48.0914C244.47 37.6317 227.562 31.1776 209.831 29.4229C192.1 27.6683 174.215 30.6795 158.101 38.1329C141.986 45.5862 128.251 57.1997 118.371 71.725C118.273 71.8679 118.21 72.0311 118.186 72.2018C118.163 72.3725 118.18 72.5462 118.237 72.7094C118.289 72.8739 118.382 73.0236 118.506 73.1455C118.631 73.2674 118.783 73.358 118.952 73.4094L121.498 74.2625C121.643 74.3041 121.793 74.3261 121.945 74.328C122.177 74.3249 122.406 74.2678 122.612 74.1613C122.818 74.0549 122.995 73.9021 123.129 73.7155C131.638 61.4355 143.089 51.3825 156.48 44.4348C169.871 37.487 184.796 33.8558 199.95 33.8583C218.208 33.861 236.062 39.1302 251.281 49.0079C266.5 58.8856 278.412 72.9344 285.528 89.4006C285.629 89.6387 285.8 89.8425 286.018 89.9864C286.237 90.1304 286.494 90.2081 286.757 90.2099H289.795C289.968 90.2118 290.139 90.1706 290.291 90.0902C290.444 90.0099 290.573 89.893 290.666 89.7504C290.774 89.6162 290.843 89.4562 290.867 89.287C290.89 89.1178 290.867 88.9456 290.8 88.7881ZM286.131 89.8162C286.193 89.8609 286.261 89.8976 286.332 89.9255C286.265 89.8817 286.198 89.86 286.131 89.8162Z" fill="url(#paint1_radial_1365_21512)"/>
    </g>
    <defs>
        <filter id="filter0_di_1365_21512" x="0.72973" y="0.72973" width="380.541" height="188.541" filterUnits="userSpaceOnUse" color-interpolation-filters="sRGB">
            <feFlood flood-opacity="0" result="BackgroundImageFix"/>
            <feColorMatrix in="SourceAlpha" type="matrix" values="0 0 0 0 0 0 0 0 0 0 0 0 0 0 0 0 0 0 127 0" result="hardAlpha"/>
            <feOffset dy="3"/>
            <feGaussianBlur stdDeviation="5.13514"/>
            <feComposite in2="hardAlpha" operator="out"/>
            <feColorMatrix type="matrix" values="0 0 0 0 1 0 0 0 0 1 0 0 0 0 1 0 0 0 0.19 0"/>
            <feBlend mode="normal" in2="BackgroundImageFix" result="effect1_dropShadow_1365_21512"/>
            <feBlend mode="normal" in="SourceGraphic" in2="effect1_dropShadow_1365_21512" result="shape"/>
            <feColorMatrix in="SourceAlpha" type="matrix" values="0 0 0 0 0 0 0 0 0 0 0 0 0 0 0 0 0 0 127 0" result="hardAlpha"/>
            <feMorphology radius="2" operator="dilate" in="SourceAlpha" result="effect2_innerShadow_1365_21512"/>
            <feOffset dy="5"/>
            <feGaussianBlur stdDeviation="3"/>
            <feComposite in2="hardAlpha" operator="arithmetic" k2="-1" k3="1"/>
            <feColorMatrix type="matrix" values="0 0 0 0 1 0 0 0 0 1 0 0 0 0 1 0 0 0 0.25 0"/>
            <feBlend mode="normal" in2="shape" result="effect2_innerShadow_1365_21512"/>
        </filter>
        <linearGradient id="paint0_linear_1365_21512" x1="191" y1="8" x2="191" y2="176" gradientUnits="userSpaceOnUse">
            <stop stop-color="#081340"/>
            <stop offset="1" stop-color="#0E2278"/>
        </linearGradient>
        <radialGradient id="paint1_radial_1365_21512" cx="0" cy="0" r="1" gradientUnits="userSpaceOnUse" gradientTransform="translate(134.659 -280.025) rotate(-90) scale(828.536 110.962)">
            <stop stop-color="white"/>
            <stop offset="0.01" stop-color="white"/>
            <stop offset="0.03" stop-color="#CBFFFF"/>
            <stop offset="0.06" stop-color="#96FFFF"/>
            <stop offset="0.08" stop-color="#68FFFF"/>
            <stop offset="0.11" stop-color="#43FFFF"/>
            <stop offset="0.14" stop-color="#25FFFF"/>
            <stop offset="0.16" stop-color="#11FFFF"/>
            <stop offset="0.19" stop-color="#04FFFF"/>
            <stop offset="0.22" stop-color="#00FFFF"/>
            <stop offset="1" stop-color="#0000FF" stop-opacity="0"/>
        </radialGradient>
    </defs>
</svg>
