<svg width="382" height="190" viewBox="0 0 382 190" fill="none" xmlns="http://www.w3.org/2000/svg">
    <g filter="url(#filter0_di_1365_21523)">
        <rect x="11" y="8" width="360" height="168" rx="15" fill="url(#paint0_linear_1365_21523)"/>
        <g clip-path="url(#clip0_1365_21523)">
            <path d="M93.4391 112.857H81.5112V96.5013H73.8015V112.816H61.6143V70.7041H73.8015V86.4391H81.5101V70.7041H93.438L93.4391 112.857ZM148.046 113.023C160.233 113.023 170.181 103.251 170.181 91.4082C170.18 79.3171 160.232 70.0002 148.045 70.0002C135.685 70.0002 129.441 78.6543 127.934 82.1327C127.934 76.9153 122.508 70.6638 116.22 70.6638H95.8936V112.816H114.842C122.551 112.816 127.977 106.48 127.977 100.932C129.656 104.41 135.685 113.023 148.045 113.023H148.046ZM113.292 95.9217C115.057 95.9217 116.479 97.5792 116.479 99.4413C116.479 101.429 115.058 103.044 113.292 103.044H107.263V95.9217H113.292ZM113.292 80.1039C115.057 80.1039 116.479 81.7614 116.479 83.6234C116.479 85.4855 115.058 87.143 113.292 87.143H107.263V80.1039H113.292ZM121.302 91.4082C122.723 91.3253 125.005 89.7507 125.91 88.8417C125.565 89.9597 125.565 93.5202 125.91 94.6387C124.919 93.2716 122.723 91.6151 121.302 91.4082ZM136.934 91.4082C136.947 89.2946 137.61 87.2319 138.84 85.4802C140.07 83.7284 141.812 82.366 143.846 81.5647C145.88 80.7634 148.115 80.559 150.27 80.9773C152.425 81.3957 154.403 82.418 155.954 83.9154C157.505 85.4129 158.561 87.3184 158.988 89.3918C159.414 91.4652 159.193 93.6137 158.352 95.5664C157.511 97.5191 156.087 99.1887 154.261 100.365C152.434 101.541 150.286 102.17 148.088 102.174C146.618 102.181 145.161 101.907 143.802 101.367C142.442 100.828 141.208 100.035 140.171 99.0332C139.133 98.0316 138.313 96.8418 137.757 95.5328C137.202 94.2239 136.922 92.8219 136.935 91.4082H136.934ZM148.045 99.8562C149.776 99.852 151.468 99.3547 152.905 98.4271C154.343 97.4996 155.463 96.1833 156.124 94.6444C156.784 93.1055 156.956 91.413 156.617 89.7804C156.278 88.1478 155.444 86.6483 154.22 85.4711C152.995 84.2939 151.436 83.4918 149.738 83.1659C148.04 82.8401 146.28 83.0052 144.679 83.6403C143.079 84.2755 141.71 85.3522 140.745 86.7347C139.781 88.1171 139.263 89.7434 139.259 91.4082C139.267 93.6464 140.195 95.7909 141.841 97.3735C143.487 98.9561 145.717 99.8483 148.045 99.8554V99.8562ZM233.83 85.6111C233.614 75.4246 226.121 70.0002 216.905 70.0002C211.823 70.0002 207.302 71.6152 204.201 74.8036C201.057 71.6152 196.536 70.0002 191.454 70.0002C182.238 70.0002 174.744 75.4246 174.486 85.6523V109.005C174.486 109.517 174.59 110.023 174.793 110.496C174.997 110.968 175.295 111.397 175.671 111.759C176.047 112.12 176.493 112.407 176.985 112.603C177.476 112.798 178.003 112.898 178.534 112.898H182.324C182.415 112.899 182.505 112.882 182.589 112.85C182.673 112.817 182.75 112.768 182.814 112.706C182.878 112.644 182.929 112.571 182.963 112.49C182.997 112.409 183.014 112.323 183.013 112.235V85.7352C183.185 80.6824 186.889 78.0333 191.454 78.0333C196.019 78.0333 199.765 80.6835 199.894 85.7352V109.005C199.894 109.517 199.998 110.023 200.201 110.496C200.404 110.968 200.702 111.398 201.078 111.76C201.454 112.121 201.901 112.408 202.392 112.603C202.884 112.799 203.41 112.899 203.942 112.899H207.732C207.823 112.9 207.913 112.883 207.997 112.851C208.081 112.818 208.157 112.769 208.221 112.707C208.286 112.645 208.336 112.572 208.371 112.491C208.405 112.41 208.422 112.324 208.421 112.236V85.7352C208.593 80.6824 212.297 78.0333 216.861 78.0333C221.426 78.0333 225.173 80.6835 225.302 85.7352V109.005C225.301 109.517 225.406 110.023 225.609 110.496C225.812 110.968 226.11 111.397 226.486 111.759C226.862 112.12 227.309 112.407 227.8 112.603C228.292 112.798 228.818 112.898 229.35 112.898H233.14C233.231 112.899 233.321 112.882 233.405 112.85C233.489 112.817 233.565 112.768 233.629 112.706C233.694 112.644 233.744 112.571 233.779 112.49C233.813 112.409 233.83 112.323 233.829 112.235V85.7352C233.872 85.6937 233.829 85.6523 233.829 85.6109L233.83 85.6111ZM319.485 70.7041H313.025C312.149 70.7092 311.288 70.9192 310.515 71.316C309.742 71.7127 309.081 72.2844 308.59 72.9816L301.441 83.1674C301.228 83.4732 300.939 83.7239 300.601 83.8972C300.263 84.0705 299.886 84.1612 299.503 84.1612C299.12 84.1612 298.743 84.0705 298.405 83.8972C298.067 83.7239 297.779 83.4732 297.565 83.1674L290.417 72.9816C289.925 72.2844 289.264 71.7127 288.492 71.3159C287.719 70.9191 286.857 70.7092 285.981 70.7041H279.521C279.431 70.7043 279.342 70.7276 279.264 70.7718C279.186 70.8159 279.122 70.8792 279.078 70.9552C279.034 71.0312 279.012 71.1171 279.014 71.2039C279.016 71.2908 279.043 71.3756 279.09 71.4495L291.837 89.6287C292.28 90.274 292.516 91.0298 292.516 91.8026C292.516 92.5755 292.28 93.3313 291.837 93.9765L279.09 112.112C279.038 112.185 279.008 112.271 279.004 112.359C278.999 112.448 279.021 112.535 279.065 112.613C279.11 112.69 279.177 112.754 279.257 112.797C279.337 112.841 279.429 112.861 279.521 112.857H285.981C286.857 112.852 287.718 112.642 288.491 112.246C289.264 111.849 289.925 111.277 290.416 110.58L297.565 100.394C297.778 100.088 298.067 99.8376 298.405 99.6643C298.743 99.4909 299.12 99.4003 299.503 99.4003C299.886 99.4003 300.263 99.4909 300.601 99.6643C300.939 99.8376 301.227 100.088 301.441 100.394L308.589 110.58C309.081 111.277 309.742 111.849 310.514 112.245C311.287 112.642 312.149 112.852 313.025 112.857H319.485C319.575 112.857 319.664 112.834 319.741 112.79C319.819 112.746 319.884 112.682 319.927 112.606C319.971 112.53 319.993 112.444 319.991 112.357C319.989 112.271 319.963 112.186 319.915 112.112L307.168 93.9327C306.726 93.2875 306.49 92.5316 306.49 91.7588C306.49 90.986 306.726 90.2301 307.168 89.5849L319.915 71.4056C319.964 71.3347 319.991 71.2519 319.993 71.1668C319.996 71.0818 319.973 70.9978 319.928 70.9244C319.884 70.851 319.818 70.7913 319.74 70.7519C319.661 70.7125 319.573 70.6951 319.485 70.7017L319.485 70.7041ZM276.162 70.7041H272.373C271.453 70.7067 270.563 71.0123 269.85 71.57C269.136 72.1276 268.644 72.9036 268.454 73.7684C265.051 71.2835 260.831 70.0417 256.223 70.0417C245.026 70.0002 236.026 77.4537 236.026 91.5322C236.026 105.611 245.069 113.064 256.18 113.064C260.745 113.064 264.966 111.822 268.324 109.379C268.408 110.342 268.867 111.24 269.609 111.892C270.352 112.545 271.322 112.904 272.328 112.898H276.117C276.208 112.9 276.298 112.883 276.383 112.85C276.467 112.817 276.543 112.769 276.607 112.707C276.671 112.645 276.722 112.572 276.756 112.491C276.791 112.41 276.808 112.323 276.806 112.236V71.3252C276.802 71.1617 276.733 71.0061 276.613 70.8905C276.492 70.7748 276.331 70.7081 276.161 70.7041H276.162ZM256.18 105.031C249.548 105.031 244.122 100.352 244.122 91.532C244.122 82.7115 249.505 78.033 256.18 78.033C262.855 78.033 268.238 82.7115 268.238 91.532C268.238 100.352 262.855 105.031 256.18 105.031L256.18 105.031Z" fill="white"/>
        </g>
    </g>
    <defs>
        <filter id="filter0_di_1365_21523" x="0.72973" y="0.72973" width="380.541" height="188.541" filterUnits="userSpaceOnUse" color-interpolation-filters="sRGB">
            <feFlood flood-opacity="0" result="BackgroundImageFix"/>
            <feColorMatrix in="SourceAlpha" type="matrix" values="0 0 0 0 0 0 0 0 0 0 0 0 0 0 0 0 0 0 127 0" result="hardAlpha"/>
            <feOffset dy="3"/>
            <feGaussianBlur stdDeviation="5.13514"/>
            <feComposite in2="hardAlpha" operator="out"/>
            <feColorMatrix type="matrix" values="0 0 0 0 1 0 0 0 0 1 0 0 0 0 1 0 0 0 0.19 0"/>
            <feBlend mode="normal" in2="BackgroundImageFix" result="effect1_dropShadow_1365_21523"/>
            <feBlend mode="normal" in="SourceGraphic" in2="effect1_dropShadow_1365_21523" result="shape"/>
            <feColorMatrix in="SourceAlpha" type="matrix" values="0 0 0 0 0 0 0 0 0 0 0 0 0 0 0 0 0 0 127 0" result="hardAlpha"/>
            <feMorphology radius="2" operator="dilate" in="SourceAlpha" result="effect2_innerShadow_1365_21523"/>
            <feOffset dy="5"/>
            <feGaussianBlur stdDeviation="3"/>
            <feComposite in2="hardAlpha" operator="arithmetic" k2="-1" k3="1"/>
            <feColorMatrix type="matrix" values="0 0 0 0 1 0 0 0 0 1 0 0 0 0 1 0 0 0 0.25 0"/>
            <feBlend mode="normal" in2="shape" result="effect2_innerShadow_1365_21523"/>
        </filter>
        <linearGradient id="paint0_linear_1365_21523" x1="191" y1="8" x2="191" y2="176" gradientUnits="userSpaceOnUse">
            <stop stop-color="#5922B5"/>
            <stop offset="1" stop-color="#951FE8"/>
        </linearGradient>
        <clipPath id="clip0_1365_21523">
            <rect width="258.386" height="43.0643" fill="white" transform="translate(61.6143 70)"/>
        </clipPath>
    </defs>
</svg>
