<svg width="382" height="190" viewBox="0 0 382 190" fill="none" xmlns="http://www.w3.org/2000/svg">
    <g filter="url(#filter0_di_1365_21531)">
        <rect x="11" y="8" width="360" height="168" rx="15" fill="#1CE783"/>
        <g clip-path="url(#clip0_1365_21531)">
            <path d="M213.054 123.312H228.679V61.3158H213.054V123.312ZM185.619 105.636C185.606 106.694 185.162 107.706 184.381 108.455C183.6 109.203 182.544 109.629 181.44 109.641H172.356C171.252 109.629 170.196 109.203 169.415 108.455C168.634 107.706 168.19 106.694 168.177 105.636V80.6462H152.551V106.855C152.551 117.566 159.728 123.225 170.266 123.225H185.528C195.248 123.225 201.153 116.521 201.153 106.855V80.6462H185.528C185.619 80.6462 185.619 104.853 185.619 105.636V105.636ZM273.465 80.6462V105.636C273.453 106.695 273.009 107.707 272.228 108.455C271.447 109.204 270.391 109.63 269.286 109.642H260.203C259.098 109.63 258.043 109.204 257.262 108.455C256.481 107.707 256.036 106.695 256.024 105.636V80.6462H240.398V106.855C240.398 117.566 247.575 123.225 258.113 123.225H273.375C283.095 123.225 289 116.521 289 106.855V80.6462H273.465ZM123.753 80.6462H113.761C110.218 80.6462 108.492 81.5168 108.492 81.5168V61.3158H92.8661V123.225H108.402V98.322C108.414 97.2635 108.858 96.2517 109.639 95.5031C110.42 94.7546 111.476 94.3287 112.58 94.3167H121.664C122.768 94.3287 123.824 94.7546 124.605 95.5031C125.386 96.2517 125.83 97.2635 125.843 98.322V123.312H141.468V96.3195C141.468 85.0008 133.565 80.6462 123.754 80.6462H123.753Z" fill="white"/>
        </g>
    </g>
    <defs>
        <filter id="filter0_di_1365_21531" x="0.72973" y="0.72973" width="380.541" height="188.541" filterUnits="userSpaceOnUse" color-interpolation-filters="sRGB">
            <feFlood flood-opacity="0" result="BackgroundImageFix"/>
            <feColorMatrix in="SourceAlpha" type="matrix" values="0 0 0 0 0 0 0 0 0 0 0 0 0 0 0 0 0 0 127 0" result="hardAlpha"/>
            <feOffset dy="3"/>
            <feGaussianBlur stdDeviation="5.13514"/>
            <feComposite in2="hardAlpha" operator="out"/>
            <feColorMatrix type="matrix" values="0 0 0 0 1 0 0 0 0 1 0 0 0 0 1 0 0 0 0.19 0"/>
            <feBlend mode="normal" in2="BackgroundImageFix" result="effect1_dropShadow_1365_21531"/>
            <feBlend mode="normal" in="SourceGraphic" in2="effect1_dropShadow_1365_21531" result="shape"/>
            <feColorMatrix in="SourceAlpha" type="matrix" values="0 0 0 0 0 0 0 0 0 0 0 0 0 0 0 0 0 0 127 0" result="hardAlpha"/>
            <feMorphology radius="2" operator="dilate" in="SourceAlpha" result="effect2_innerShadow_1365_21531"/>
            <feOffset dy="5"/>
            <feGaussianBlur stdDeviation="3"/>
            <feComposite in2="hardAlpha" operator="arithmetic" k2="-1" k3="1"/>
            <feColorMatrix type="matrix" values="0 0 0 0 1 0 0 0 0 1 0 0 0 0 1 0 0 0 0.25 0"/>
            <feBlend mode="normal" in2="shape" result="effect2_innerShadow_1365_21531"/>
        </filter>
        <clipPath id="clip0_1365_21531">
            <rect width="196.134" height="61.9963" fill="white" transform="translate(92.8662 61.3164)"/>
        </clipPath>
    </defs>
</svg>
