<svg width="382" height="190" viewBox="0 0 382 190" fill="none" xmlns="http://www.w3.org/2000/svg">
    <g filter="url(#filter0_di_1365_21502)">
        <rect x="11" y="8" width="360" height="168" rx="15" fill="#E31019"/>
        <path d="M72.5023 91.9441V123.888L74.3198 123.613C75.2561 123.448 77.4591 123.172 79.1114 122.952L82.1406 122.566L82.4159 105.493L82.6913 88.4192L88.4192 104.667L94.1471 120.914L99.4344 120.363L104.722 119.813L104.887 89.9063L104.997 60.0551H100.04H95.0834L95.0283 77.7896C95.0283 93.5964 94.9182 95.3588 94.2573 93.6514C91.7238 87.3177 82.8565 62.9741 82.5812 61.6523L82.3058 60.0551H77.404H72.5023V91.9441Z" fill="white"/>
        <path d="M114.911 89.5206V118.986L117.004 118.711C118.105 118.546 122.787 118.215 127.303 117.885C131.874 117.554 137.106 117.169 139.034 117.004L142.449 116.673V111.992V107.31L134.628 107.696C130.277 107.861 126.312 108.191 125.816 108.302C124.88 108.577 124.824 107.971 124.824 100.866V93.1005H131.434H138.043V88.2539V83.4622L131.434 83.6825L124.824 83.8478V76.9082V69.9686H133.637H142.449V65.0118V60.0549H128.68H114.911V89.5206Z" fill="white"/>
        <path d="M149.058 65.0115V69.9683H154.29H159.522V92.935V115.957L164.479 115.792L169.436 115.626V92.7698V69.9683H174.668H179.9V65.0115V60.0546H164.479H149.058V65.0115Z" fill="white"/>
        <path d="M186.51 87.593V115.131H188.933C190.255 115.131 192.458 115.296 193.89 115.461L196.423 115.847V104.171V92.5498H203.032H209.642V87.8684V83.1869H203.032H196.423V76.5778V69.9687H205.235H214.048V65.0118V60.055H200.279H186.51V87.593Z" fill="white"/>
        <path d="M221.042 74.4848C220.822 82.4709 220.657 95.0833 220.657 102.519V116.067L231.286 116.453C237.069 116.673 243.183 116.948 244.78 117.169L247.644 117.499V112.542V107.53L239.107 107.145L230.57 106.759V83.4072V60.0549H225.999H221.373L221.042 74.4848Z" fill="white"/>
        <path d="M256.456 88.9146V117.719L258.549 118.105C259.651 118.27 261.743 118.435 263.231 118.435H265.819V89.2451V60.0548H261.138H256.456V88.9146Z" fill="white"/>
        <path d="M280.194 73.9342C283.223 81.5897 285.867 88.3641 286.142 88.9699C286.473 89.741 284.93 93.8166 280.304 104.446C276.889 112.432 274.08 119.041 274.08 119.152C274.08 119.262 275.623 119.537 277.55 119.757C279.423 119.978 281.736 120.253 282.617 120.418L284.27 120.694L287.794 112.432C289.722 107.861 291.484 104.116 291.65 104.116C291.815 104.116 293.577 108.191 295.505 113.148L298.975 122.181L303.766 122.842C306.355 123.172 308.944 123.613 309.439 123.723C310.541 124.053 310.816 124.769 302.5 103.51L297.267 90.1265L303.601 75.5865C307.071 67.6004 309.88 60.8261 309.88 60.5507C309.88 60.2203 307.787 60.055 304.593 60.1652L299.305 60.3304L296.056 68.041C294.238 72.2819 292.586 75.9169 292.366 76.1372C292.145 76.3575 290.548 72.8877 288.841 68.4266L285.757 60.3304L280.249 60.1652L274.741 60L280.194 73.9342Z" fill="white"/>
    </g>
    <defs>
        <filter id="filter0_di_1365_21502" x="0.72973" y="0.72973" width="380.541" height="188.541" filterUnits="userSpaceOnUse" color-interpolation-filters="sRGB">
            <feFlood flood-opacity="0" result="BackgroundImageFix"/>
            <feColorMatrix in="SourceAlpha" type="matrix" values="0 0 0 0 0 0 0 0 0 0 0 0 0 0 0 0 0 0 127 0" result="hardAlpha"/>
            <feOffset dy="3"/>
            <feGaussianBlur stdDeviation="5.13514"/>
            <feComposite in2="hardAlpha" operator="out"/>
            <feColorMatrix type="matrix" values="0 0 0 0 1 0 0 0 0 1 0 0 0 0 1 0 0 0 0.19 0"/>
            <feBlend mode="normal" in2="BackgroundImageFix" result="effect1_dropShadow_1365_21502"/>
            <feBlend mode="normal" in="SourceGraphic" in2="effect1_dropShadow_1365_21502" result="shape"/>
            <feColorMatrix in="SourceAlpha" type="matrix" values="0 0 0 0 0 0 0 0 0 0 0 0 0 0 0 0 0 0 127 0" result="hardAlpha"/>
            <feMorphology radius="2" operator="dilate" in="SourceAlpha" result="effect2_innerShadow_1365_21502"/>
            <feOffset dy="5"/>
            <feGaussianBlur stdDeviation="3"/>
            <feComposite in2="hardAlpha" operator="arithmetic" k2="-1" k3="1"/>
            <feColorMatrix type="matrix" values="0 0 0 0 1 0 0 0 0 1 0 0 0 0 1 0 0 0 0.25 0"/>
            <feBlend mode="normal" in2="shape" result="effect2_innerShadow_1365_21502"/>
        </filter>
    </defs>
</svg>
