<svg width="382" height="190" viewBox="0 0 382 190" fill="none" xmlns="http://www.w3.org/2000/svg">
    <g filter="url(#filter0_di_1365_21527)">
        <rect x="11" y="8" width="360" height="168" rx="15" fill="#0057FF"/>
        <g clip-path="url(#clip0_1365_21527)">
            <path d="M181.051 93.7028C180.565 93.506 179.769 92.6338 181.094 90.205L184.173 83.926C184.267 83.7361 184.042 83.4985 183.901 83.6598L181.209 86.3011C179.936 87.5986 177.775 91.2449 177.356 91.9198L174.084 97.1942C174.162 97.1918 174.239 97.2096 174.308 97.2457C174.376 97.2819 174.434 97.3352 174.474 97.4001C174.515 97.465 174.537 97.5393 174.538 97.6153C174.54 97.6913 174.521 97.7663 174.483 97.8327L171.492 102.734C170.762 103.949 172.074 104.798 172.252 104.518C176.95 97.1342 179.683 97.723 179.683 97.723L181.252 94.1789C181.271 94.1367 181.282 94.0911 181.284 94.0447C181.286 93.9984 181.278 93.9522 181.261 93.9087C181.244 93.8653 181.219 93.8256 181.187 93.7917C181.154 93.7578 181.115 93.7306 181.072 93.7114C181.066 93.7084 181.058 93.7056 181.051 93.7028ZM191.734 32C164.869 32 143.092 53.2398 143.092 79.4402C143.078 89.583 146.413 99.4603 152.602 107.609C154.643 106.748 155.777 105.465 156.587 104.481L165.643 93.1842C165.834 92.9461 166.083 92.7587 166.368 92.6393L167.731 92.0672L182.623 73.6445L184.782 71.9958L189.22 65.9719C189.335 65.8159 189.475 65.6788 189.634 65.5661L191.569 64.1933C191.802 64.0279 192.082 63.9377 192.37 63.9354C192.659 63.933 192.941 64.0187 193.177 64.1803L195.526 65.7884C196.772 66.6413 197.782 67.7821 198.467 69.1088L207.877 85.2293C208.03 85.5368 208.291 85.7808 208.613 85.9172C210.458 86.8133 211.586 86.9721 214.001 89.5305C215.128 90.7241 220.066 96.1096 226.987 104.482C227.993 105.825 229.339 106.89 230.894 107.572C237.065 99.4299 240.388 89.567 240.373 79.4402C240.373 53.2395 218.597 32 191.733 32H191.734ZM156.209 82.055L153.055 81.0556L151.107 83.6706V80.4393L147.953 79.44L151.107 78.4406V75.2068L153.055 77.8227L156.209 76.8233L154.261 79.4402L156.209 82.055ZM155.462 92.6332L154.437 95.7079L153.413 92.6332H150.099L152.78 90.7327L151.756 87.6583L154.438 89.5588L157.12 87.6583L156.095 90.7327L158.778 92.6332H155.462ZM156.095 68.1458L157.119 71.2205L154.437 69.32L151.756 71.2205L152.78 68.1458L150.099 66.2453H153.413L154.437 63.1709L155.462 66.2453H158.776L156.095 68.1458ZM161.418 61.1905L159.47 58.575L156.316 59.5743L158.265 56.9591L156.316 54.3435L159.47 55.3429L161.419 52.7273V55.9605L164.572 56.9579L161.419 57.9573V61.188L161.418 61.1905ZM169.707 49.8722L168.683 52.9469L167.659 49.8725H164.344L167.026 47.9723L166.002 44.8973L168.683 46.7975L171.365 44.897L170.34 47.9742L173.022 49.8747H169.707L169.707 49.8722ZM180.154 44.6811L178.206 47.2969V44.0648L175.053 43.0654L178.206 42.0661V38.8334L180.155 41.4492L183.307 40.4499L181.359 43.0654L183.308 45.6807L180.154 44.6811ZM193.391 41.7177L194.415 44.7924L191.733 42.8919L189.051 44.7924L190.076 41.7191L187.394 39.8186H190.709L191.733 36.7439L192.757 39.8186H196.072L193.391 41.7177ZM205.26 44.0648V47.2977L203.312 44.6819L200.159 45.6813L202.107 43.066L200.159 40.4513L203.313 41.4506L205.261 38.8334V42.0661L208.415 43.0654L205.26 44.0648ZM227.256 76.8247L230.409 77.8241L232.357 75.2082V78.4409L235.511 79.4402L232.357 80.4396V83.672L230.41 81.0564L227.257 82.0558L229.207 79.4402L227.256 76.8247ZM214.783 52.9483L213.759 49.8736H210.444L213.125 47.9742L212.102 44.8993L214.783 46.7997L217.464 44.8998L216.442 47.9742L219.123 49.8747H215.808L214.783 52.9483ZM222.049 61.1913V57.9587L218.895 56.9593L222.049 55.9622V52.7276L223.997 55.3431L227.15 54.3438L225.203 56.9593L227.15 59.5752L223.997 58.5758L222.049 61.1913ZM228.003 66.2462L229.027 63.1717L230.051 66.2462H233.369L230.688 68.1466L231.713 71.2213L229.029 69.3217L226.348 71.2222L227.372 68.1475L224.689 66.247L228.003 66.2462ZM230.053 92.6329L229.029 95.7076L228.005 92.6329H224.689L227.372 90.7325L226.348 87.6581L229.029 89.5585L231.713 87.6581L230.689 90.7325L233.369 92.6329H230.053ZM209.352 106.857C209.585 106.525 209.965 105.617 209.252 103.932L207.1 98.2868C206.808 97.5651 207.448 97.1289 207.877 97.6028C207.877 97.6028 211.945 102.178 212.996 104.088L215.002 107.336C216.728 107.445 221.491 107.571 226.076 107.571C225.614 107.124 225.188 106.644 224.8 106.134C216.976 96.6737 212.015 91.4112 211.965 91.359C210.379 89.6779 209.647 89.3547 208.437 88.8176C208.262 88.7399 208.072 88.6563 207.877 88.5655V90.0029C207.882 90.0454 207.871 90.0882 207.846 90.1236C207.822 90.1589 207.785 90.1844 207.743 90.1952C207.7 90.2061 207.655 90.2015 207.616 90.1825C207.577 90.1635 207.546 90.1313 207.529 90.0918L196.027 70.3841L195.995 70.3219C195.515 69.3937 194.808 68.5953 193.937 67.9976L192.815 67.2283L187.327 79.5752C187.524 79.575 187.718 79.6226 187.891 79.7137C188.065 79.8049 188.212 79.9366 188.32 80.0972C188.428 80.2577 188.494 80.442 188.511 80.6334C188.528 80.8248 188.496 81.0173 188.417 81.1936L183.348 92.6324H188.001C189.8 92.6321 191.582 92.974 193.246 93.6389L194.473 94.1295C194.473 94.1295 190.772 101.556 190.772 105.467C190.777 106.178 190.879 106.885 191.074 107.571H199.605L199.21 105.226C202.557 105.955 205.943 106.5 209.352 106.858L209.352 106.857ZM143.525 118.891C143.525 111.251 135.221 107.572 125.354 107.572C114.8 107.572 105.117 112.135 101.563 119.209C100.582 121.094 100.072 123.179 100.075 125.293C100.03 127.121 100.548 128.919 101.563 130.456C103.086 132.649 105.805 134.03 109.795 134.03C114.692 134.03 118.573 131.411 118.573 126.849C118.573 126.849 118.645 125.576 117.122 125.576C115.889 125.576 115.562 126.424 115.599 126.849C115.781 130.421 113.604 133.287 109.723 133.287C105.372 133.287 103.557 129.678 103.557 125.824C103.557 117.935 109.651 112.7 115.998 110.436C118.964 109.343 122.114 108.803 125.284 108.843C132.465 108.843 138.342 111.532 138.342 118.749C138.342 124.761 133.156 129.891 126.953 130.351L127.207 129.537C128.477 125.115 130.036 120.27 132.574 116.697C132.72 116.483 132.973 116.13 133.264 115.777L132.901 115.352C132.359 115.673 131.838 116.028 131.341 116.413C119.446 125.469 119.085 150.937 103.233 150.937C102.687 150.937 102.142 150.902 101.601 150.831C98.3014 150.301 96.5594 148.142 96.5594 145.137C96.5594 144.536 96.7776 143.721 96.7776 143.262C96.7896 142.852 96.6342 142.454 96.3454 142.155C96.0566 141.857 95.6581 141.683 95.2377 141.671H95.0368C93.6226 141.671 93.042 142.766 93.0056 144.323C92.8974 148.816 96.3056 151.433 101.566 151.929C102.145 151.964 102.726 152 103.343 152C115.71 152 123.29 142.874 126.518 131.802C128.153 131.615 129.767 131.284 131.341 130.812C137.072 129.254 143.525 125.506 143.525 118.891ZM261.329 121.543H256.976L255.998 123.772L254.293 127.522H252.263L251.644 128.795H253.749L251.207 134.279C249.396 138.134 246.566 141.919 244.934 141.919C244.572 141.919 244.353 141.777 244.353 141.425C244.353 141.072 244.461 140.751 244.861 139.762C245.369 138.594 246.204 136.896 246.821 135.658C247.725 133.854 249.177 131.06 249.177 129.68C249.177 128.301 248.272 127.204 246.493 127.204C244.499 127.204 242.685 128.372 241.015 130.069L242.104 127.522H238.007L234.669 134.951C233.329 137.568 230.607 141.918 228.902 141.918C228.54 141.918 228.393 141.705 228.393 141.352C228.429 141.035 228.514 140.724 228.648 140.432C228.794 140.114 230.788 135.551 230.788 135.551L234.416 127.451H229.992L226.473 135.339C225.386 137.78 222.63 141.918 220.851 141.918C220.777 141.925 220.703 141.918 220.632 141.897C220.561 141.876 220.495 141.841 220.438 141.795C220.381 141.749 220.334 141.693 220.299 141.629C220.264 141.565 220.242 141.496 220.235 141.424V141.281C220.235 140.857 220.562 140.078 220.816 139.512L222.666 135.551L226.473 127.45H222.087L221.213 129.29C220.563 130.528 219.473 131.978 217.733 131.978C216.898 131.978 216.501 131.66 216.319 131.341C216.065 128.617 214.287 127.167 211.676 127.167C208.049 127.167 205.474 129.254 203.767 131.801C202.65 133.557 201.773 135.447 201.157 137.425C199.597 139.937 197.966 141.883 196.66 141.883C196.333 141.883 196.115 141.705 196.115 141.281C196.115 140.857 196.551 139.902 196.696 139.547L199.561 133.605C200.358 131.766 200.904 130.563 200.904 129.36C200.904 128.087 199.999 127.167 198.51 127.167C196.442 127.167 194.193 128.335 192.416 130.245C192.476 129.942 192.501 129.633 192.489 129.324C192.489 127.909 191.764 127.166 190.276 127.166C188.391 127.166 186.432 128.264 184.655 130.244L185.816 127.483H181.826L178.454 134.914C176.858 138.416 174.283 141.883 172.832 141.883C172.506 141.883 172.288 141.705 172.288 141.281C172.288 140.609 173.05 138.947 173.341 138.275L177.802 128.406C178.128 127.663 175.988 127.203 173.268 127.203C170.476 127.203 167.61 128.547 165.507 130.28C164.02 131.482 162.932 132.085 162.387 132.085C162.301 132.102 162.212 132.086 162.139 132.04C162.066 131.994 162.014 131.921 161.996 131.838C161.99 131.814 161.988 131.791 161.989 131.767C161.989 131.165 163.475 129.466 163.475 128.158C163.475 127.557 163.15 127.167 162.314 127.167C160.72 127.167 158.833 128.653 157.455 130.209L158.615 127.485H154.698L151.326 134.914C149.729 138.416 147.082 142.06 145.632 142.06C145.305 142.06 145.089 141.883 145.089 141.458C145.089 140.786 145.814 139.16 146.213 138.31L150.674 128.406C151.001 127.663 148.861 127.203 146.14 127.203C142.114 127.203 138.197 129.856 136.13 132.579C133.845 135.514 132.286 138.628 132.249 141.175C132.214 143.226 133.3 144.5 135.477 144.5C137.907 144.5 139.867 142.625 140.99 141.21C140.923 141.49 140.875 141.774 140.844 142.059C140.844 143.474 141.425 144.5 143.201 144.5C144.761 144.5 146.828 143.226 148.497 141.21L147.152 144.218H151.395L155.566 134.986C156.947 131.978 158.507 130.422 158.941 130.422C158.964 130.417 158.989 130.417 159.012 130.422C159.036 130.427 159.059 130.436 159.079 130.449C159.099 130.462 159.116 130.479 159.129 130.499C159.143 130.519 159.152 130.541 159.156 130.564C159.158 130.575 159.159 130.587 159.159 130.598C159.159 130.917 158.507 131.767 158.507 132.544C158.507 133.321 158.941 133.923 160.103 133.923C161.008 133.923 162.025 133.498 162.931 132.932C160.792 135.763 159.34 138.733 159.34 141.176C159.304 143.228 160.391 144.501 162.568 144.501C164.852 144.501 166.992 142.379 168.153 140.964C168.109 141.292 168.085 141.623 168.08 141.954C168.08 143.334 168.879 144.501 170.511 144.501C172.323 144.501 173.775 143.404 175.588 141.247L174.245 144.217H178.597L182.586 135.409C184.327 131.589 186.683 129.537 187.845 129.537C187.985 129.523 188.124 129.563 188.233 129.649C188.342 129.735 188.411 129.86 188.426 129.996C188.425 129.997 188.425 129.997 188.426 129.998V130.103C188.378 130.533 188.255 130.952 188.063 131.341L182.338 144.253H186.798L190.86 135.267C192.6 131.412 194.523 129.537 195.974 129.537C196.409 129.537 196.591 129.75 196.591 130.209C196.552 130.701 196.417 131.182 196.192 131.625L192.275 139.76C191.914 140.542 191.692 141.38 191.62 142.235C191.62 143.473 192.309 144.572 194.269 144.572C196.81 144.572 198.73 142.697 200.905 139.903V140.504C201.087 142.733 202.356 144.678 205.729 144.678C209.718 144.678 212.948 141.989 214.905 137.71C215.645 136.205 216.123 134.591 216.321 132.933C216.758 133.149 217.245 133.248 217.734 133.218C218.393 133.225 219.043 133.067 219.621 132.758L218.932 134.207C218.131 135.835 217.261 137.639 216.575 139.161C216.14 140.061 215.882 141.033 215.813 142.025C215.813 143.546 216.684 144.643 218.459 144.643C220.235 144.643 222.667 143.016 224.408 140.717H224.446C224.329 141.192 224.268 141.678 224.262 142.167C224.262 143.441 224.662 144.644 226.475 144.644C228.581 144.644 230.21 143.158 231.808 141.282L230.465 144.254H234.853L238.373 136.472C240.367 132.086 242.362 129.433 244.21 129.433C244.363 129.428 244.512 129.48 244.627 129.579C244.743 129.677 244.815 129.815 244.829 129.964V130.068C244.829 130.812 243.74 132.828 242.761 134.843C241.853 136.683 241.164 138.097 240.694 139.195C240.258 140.119 239.999 141.114 239.932 142.13C239.932 143.473 240.694 144.499 242.4 144.499C244.937 144.499 247.513 142.094 248.888 140.289C248.578 141.154 248.407 142.061 248.383 142.977C248.383 145.454 249.904 146.692 252.045 146.692C253.467 146.682 254.85 146.237 255.999 145.419C257.667 144.287 259.01 142.589 260.135 141.033L259.373 140.325C258.32 141.776 257.16 143.157 255.962 144.005C255.331 144.525 254.54 144.824 253.714 144.854C252.809 144.854 252.228 144.393 252.228 143.263C252.228 142.132 252.771 140.609 253.606 138.557C253.641 138.522 254.838 135.904 255.963 133.394C256.906 131.27 257.849 129.219 258.031 128.795H260.895L261.476 127.521H258.647L261.329 121.543ZM137.615 141.954C136.999 141.954 136.562 141.742 136.562 140.964C136.598 138.876 138.375 135.162 140.589 132.192C142.148 130.14 144.179 128.62 146.355 128.62L143.598 134.632C141.532 139.16 139.283 141.954 137.615 141.954ZM164.744 141.954C164.128 141.954 163.692 141.742 163.657 140.964C163.693 138.876 165.47 135.162 167.683 132.192C169.242 130.14 171.274 128.62 173.449 128.62L170.692 134.632C168.589 139.268 166.45 141.955 164.744 141.955L164.744 141.954ZM212.909 130.246C212.8 132.545 210.733 138.097 208.304 141.424C207.325 142.768 206.49 143.156 205.766 143.156C204.749 143.156 204.458 142.343 204.603 141.14C204.819 139.054 206.598 134.172 209.066 130.811C210.19 129.29 210.952 128.654 211.822 128.654C212.692 128.654 212.946 129.362 212.908 130.246L212.909 130.246ZM280.6 127.521L284.595 118.525H279.867L275.872 127.521H265.824L264.147 131.294H274.199L270.204 140.291H274.932L278.927 131.294H288.976L290.649 127.521H280.6Z" fill="white"/>
        </g>
    </g>
    <defs>
        <filter id="filter0_di_1365_21527" x="0.72973" y="0.72973" width="380.541" height="188.541" filterUnits="userSpaceOnUse" color-interpolation-filters="sRGB">
            <feFlood flood-opacity="0" result="BackgroundImageFix"/>
            <feColorMatrix in="SourceAlpha" type="matrix" values="0 0 0 0 0 0 0 0 0 0 0 0 0 0 0 0 0 0 127 0" result="hardAlpha"/>
            <feOffset dy="3"/>
            <feGaussianBlur stdDeviation="5.13514"/>
            <feComposite in2="hardAlpha" operator="out"/>
            <feColorMatrix type="matrix" values="0 0 0 0 1 0 0 0 0 1 0 0 0 0 1 0 0 0 0.19 0"/>
            <feBlend mode="normal" in2="BackgroundImageFix" result="effect1_dropShadow_1365_21527"/>
            <feBlend mode="normal" in="SourceGraphic" in2="effect1_dropShadow_1365_21527" result="shape"/>
            <feColorMatrix in="SourceAlpha" type="matrix" values="0 0 0 0 0 0 0 0 0 0 0 0 0 0 0 0 0 0 127 0" result="hardAlpha"/>
            <feMorphology radius="2" operator="dilate" in="SourceAlpha" result="effect2_innerShadow_1365_21527"/>
            <feOffset dy="5"/>
            <feGaussianBlur stdDeviation="3"/>
            <feComposite in2="hardAlpha" operator="arithmetic" k2="-1" k3="1"/>
            <feColorMatrix type="matrix" values="0 0 0 0 1 0 0 0 0 1 0 0 0 0 1 0 0 0 0.25 0"/>
            <feBlend mode="normal" in2="shape" result="effect2_innerShadow_1365_21527"/>
        </filter>
        <clipPath id="clip0_1365_21527">
            <rect width="197.647" height="120" fill="white" transform="translate(93 32)"/>
        </clipPath>
    </defs>
</svg>
