<svg width="382" height="190" viewBox="0 0 382 190" fill="none" xmlns="http://www.w3.org/2000/svg">
    <g filter="url(#filter0_di_1365_21545)">
        <rect x="11" y="8" width="360" height="168" rx="15" fill="#098FBD"/>
        <g clip-path="url(#clip0_1365_21545)">
            <path d="M209.357 83.3171C209.523 82.7576 209.688 82.226 209.853 81.6663C211.121 77.3293 212.389 73.0197 213.656 68.6821L213.821 68.1781C213.892 67.9394 214.038 67.7309 214.237 67.5844C214.436 67.438 214.677 67.3617 214.922 67.3672H219.11C220.158 67.3672 220.378 67.6749 220.02 68.6821L218.367 73.1313C216.521 78.0005 214.675 82.8975 212.829 87.767C212.773 87.935 212.691 88.1023 212.636 88.2703C212.54 88.558 212.353 88.805 212.104 88.9723C211.854 89.1396 211.557 89.2176 211.259 89.1938C210.046 89.1661 208.833 89.1661 207.622 89.1938C206.768 89.2219 206.272 88.8297 205.969 88.0463C205.28 86.1998 204.564 84.3249 203.875 82.4778C202.222 78.0843 200.541 73.691 198.888 69.2697C198.727 68.9209 198.607 68.5543 198.529 68.1773C198.446 67.6182 198.64 67.3381 199.191 67.3381C200.761 67.3102 202.332 67.3381 203.875 67.3381C204.536 67.3381 204.839 67.7859 205.005 68.3737C205.308 69.4369 205.61 70.5284 205.941 71.5916C207.071 75.4814 208.173 79.399 209.303 83.289C209.275 83.3168 209.303 83.3168 209.357 83.3168L209.357 83.3171Z" fill="white"/>
            <path d="M228.866 78.2863V88.3602C228.811 88.9197 228.562 89.172 228.011 89.1995C226.523 89.2276 225.063 89.2276 223.575 89.1995C223.024 89.1995 222.776 88.9197 222.721 88.3881C222.698 88.2118 222.689 88.0341 222.694 87.8565V68.4923C222.721 67.6246 222.941 67.3739 223.795 67.3739H227.762C228.616 67.3739 228.865 67.6257 228.865 68.4923L228.866 78.2863Z" fill="white"/>
            <path d="M225.807 57.3245C226.364 57.2779 226.923 57.3741 227.433 57.6043C227.961 57.8059 228.419 58.1596 228.752 58.6218C229.085 59.084 229.277 59.6348 229.306 60.2067C229.527 62.7528 227.847 64.04 225.614 63.984C225.309 63.9743 225.004 63.9368 224.705 63.8719C222.997 63.4524 222.115 62.1091 222.28 60.1788C222.418 58.6399 223.603 57.4925 225.229 57.3528C225.419 57.3156 225.614 57.3058 225.807 57.3245Z" fill="white"/>
            <path d="M300.973 76.5516V76.6637C300.917 76.6118 300.877 76.5447 300.857 76.4703C300.838 76.396 300.839 76.3175 300.863 76.2442V76.0202C300.862 76.0165 300.863 76.0128 300.864 76.0094C300.866 76.0059 300.868 76.0028 300.87 76.0002C300.873 75.9975 300.876 75.9954 300.879 75.994C300.883 75.9926 300.886 75.9919 300.89 75.9919H300.863V75.7126H300.918C300.918 75.6842 300.89 75.6842 300.89 75.6564C300.831 75.1265 300.73 74.6024 300.587 74.0894C299.568 70.3963 297.28 67.9612 293.561 67.0093C291.836 66.5949 290.048 66.5284 288.298 66.8137C284.578 67.3737 281.906 69.3885 280.611 72.97C279.352 76.3817 279.362 80.1425 280.638 83.5475C281.739 86.6533 283.945 88.6125 287.113 89.4239C288.806 89.8527 290.565 89.9477 292.293 89.7038C298.079 89.0042 300.477 84.5542 300.863 80.6931H300.835V80.3009C300.807 80.1334 300.779 79.9932 300.945 79.8814V79.9368C300.952 79.8948 300.971 79.8558 301 79.8249V76.6078C301 76.5799 300.973 76.5799 300.973 76.5516ZM294.36 81.8684C294.199 82.4514 293.938 83.001 293.588 83.4915C293.287 83.922 292.896 84.2803 292.444 84.5413C291.992 84.8024 291.489 84.9599 290.97 85.0029C290.447 85.068 289.917 85.0492 289.4 84.9469C288.832 84.8382 288.3 84.5901 287.848 84.2242C287.397 83.8584 287.04 83.386 286.81 82.8481C286.399 81.9779 286.147 81.0394 286.066 80.078C285.928 78.4268 285.901 76.775 286.287 75.1529C286.436 74.5011 286.687 73.8777 287.029 73.3063C287.328 72.8107 287.739 72.3948 288.227 72.0931C288.716 71.7913 289.269 71.6126 289.839 71.5719C290.363 71.5065 290.893 71.5253 291.411 71.6278C291.952 71.738 292.46 71.975 292.896 72.3199C293.331 72.6648 293.681 73.1081 293.918 73.6145C294.389 74.604 294.661 75.679 294.717 76.7766C294.754 77.2793 294.763 77.7838 294.745 78.2876C294.826 79.4949 294.695 80.7073 294.36 81.8684Z" fill="white"/>
            <path d="M252.672 57.5209H248.842C247.795 57.5209 247.602 57.7172 247.602 58.7802V67.8471C247.602 68.0426 247.685 68.2372 247.547 68.4346C247.299 68.4065 247.161 68.2385 246.968 68.1269C244.102 66.4197 241.099 66.1118 238.068 67.5389C235.947 68.5467 234.624 70.3654 233.77 72.5202C232.943 74.5907 232.75 76.7735 232.805 78.9842C232.803 81.0526 233.274 83.0932 234.183 84.9444C235.23 86.9873 236.745 88.5543 238.95 89.2261C241.953 90.1772 244.763 89.7015 247.326 87.7696C247.519 87.6576 247.629 87.4615 247.877 87.4055C248.019 87.7174 248.121 88.0466 248.18 88.385C248.233 88.6032 248.357 88.7967 248.532 88.934C248.707 89.0712 248.923 89.144 249.144 89.1405H249.806C250.798 89.1405 251.762 89.1689 252.725 89.1405C253.497 89.1405 253.718 88.8888 253.745 88.0773V58.5843C253.719 57.7172 253.498 57.5209 252.672 57.5209ZM247.63 78.1168V83.2094C247.653 83.3713 247.622 83.5362 247.542 83.6782C247.462 83.8202 247.338 83.9311 247.189 83.9933C245.879 84.7533 244.356 85.0486 242.862 84.8326C242.241 84.7629 241.645 84.5371 241.131 84.1757C240.616 83.8143 240.198 83.3285 239.914 82.7621C239.482 81.8783 239.221 80.919 239.143 79.9355C238.935 78.1762 239.047 76.3929 239.473 74.6747C239.604 74.1976 239.789 73.7375 240.025 73.3035C240.312 72.7684 240.728 72.3159 241.234 71.9881C241.74 71.6602 242.319 71.4678 242.918 71.4286C244.373 71.2981 245.837 71.5587 247.161 72.1844C247.322 72.2432 247.458 72.3553 247.548 72.5026C247.638 72.6498 247.677 72.8236 247.658 72.9958C247.602 74.7308 247.63 76.4102 247.63 78.1168Z" fill="white"/>
            <path d="M269.314 80.3254C270.911 80.2133 272.509 79.9059 273.942 79.122C274.66 78.7652 275.285 78.2427 275.769 77.5965C276.252 76.9503 276.579 76.1981 276.725 75.4003C276.923 74.3832 276.913 73.3358 276.698 72.3225C276.119 69.8037 274.549 68.2364 272.179 67.425C270.851 67.0116 269.462 66.8318 268.074 66.8934C263.445 67.0055 259.918 69.3842 258.485 74.0854C257.521 77.1915 257.658 80.3533 258.595 83.4599C259.56 86.6495 261.764 88.5809 264.905 89.4485C266.257 89.7829 267.648 89.9242 269.038 89.8683C271.063 89.8365 273.067 89.4482 274.962 88.7208C275.761 88.4131 275.954 88.1333 275.954 87.2656V85.2506C275.926 84.4396 275.595 84.1595 274.797 84.3554C274.191 84.5234 273.612 84.663 273.006 84.8032C271.156 85.2595 269.234 85.3261 267.358 84.9991C265.484 84.6349 264.216 83.5426 263.721 81.6409C263.578 81.0805 263.477 80.5099 263.418 79.934C263.549 79.923 263.681 79.9421 263.804 79.9899C265.619 80.339 267.471 80.4518 269.314 80.3254ZM263.555 75.8482C263.748 74.7558 263.996 73.6934 264.656 72.7982C265.675 71.4268 267.081 71.0346 268.679 71.2026C268.817 71.2026 268.927 71.2586 269.063 71.2586C270.992 71.5667 271.461 73.1335 271.103 74.6445C270.827 75.7642 269.918 76.1839 268.898 76.3795C268.336 76.4966 267.763 76.5437 267.19 76.5197C266.074 76.497 264.96 76.4036 263.856 76.2398C263.61 76.2118 263.5 76.0999 263.555 75.8482Z" fill="white"/>
            <path d="M189.704 126.1C188.2 126.017 186.697 125.961 185.193 125.85C181.175 125.545 177.187 124.927 173.262 124.004C159.733 120.813 147.859 114.405 137.498 105.086C136.534 104.219 135.625 103.324 134.688 102.428C134.459 102.22 134.28 101.962 134.165 101.674C134.085 101.489 134.061 101.284 134.096 101.085C134.13 100.886 134.221 100.702 134.357 100.555C134.492 100.402 134.671 100.296 134.868 100.251C135.066 100.206 135.272 100.224 135.459 100.304C135.706 100.408 135.945 100.53 136.176 100.668C146.06 106.879 156.874 111.415 168.193 114.1C171.995 114.995 175.825 115.695 179.682 116.199C185.219 116.897 190.802 117.15 196.379 116.954C199.375 116.856 202.363 116.604 205.334 116.199C212.283 115.298 219.13 113.714 225.779 111.47C229.269 110.307 232.691 108.943 236.028 107.384C236.532 107.102 237.122 107.022 237.682 107.16C238.119 107.273 238.495 107.557 238.727 107.95C238.959 108.343 239.029 108.814 238.922 109.259C238.888 109.385 238.841 109.507 238.783 109.623C238.566 110.044 238.255 110.408 237.875 110.686C234.698 113.214 231.283 115.416 227.68 117.263C220.87 120.757 213.606 123.254 206.106 124.678C201.799 125.459 197.443 125.936 193.071 126.104H193.045V126.217H189.739V126.104L189.704 126.1ZM240.41 98.818C242.228 98.8742 244.021 98.986 245.783 99.4617C246.275 99.5971 246.755 99.775 247.217 99.9936C247.523 100.124 247.79 100.336 247.989 100.606C248.188 100.877 248.311 101.197 248.347 101.533C248.457 102.33 248.485 103.136 248.43 103.939C248.068 108.718 246.615 113.345 244.186 117.455C243.308 118.932 242.232 120.279 240.99 121.457C240.742 121.71 240.441 121.902 240.108 122.017C239.584 122.156 239.254 121.876 239.226 121.345C239.251 121.057 239.316 120.775 239.419 120.505C240.384 117.875 241.321 115.273 242.065 112.558C242.501 111.076 242.814 109.56 243.001 108.025C243.066 107.467 243.075 106.905 243.029 106.346C243.018 105.883 242.863 105.436 242.585 105.069C242.308 104.702 241.923 104.434 241.486 104.303C240.629 104.023 239.74 103.853 238.841 103.799C236.31 103.687 233.775 103.799 231.263 104.135L227.928 104.556C227.57 104.584 227.239 104.556 227.047 104.22C226.965 104.061 226.93 103.883 226.944 103.704C226.959 103.526 227.023 103.356 227.129 103.213C227.349 102.897 227.631 102.63 227.956 102.429C229.995 100.946 232.282 100.051 234.707 99.464C236.586 99.0805 238.494 98.8644 240.41 98.8183L240.41 98.818Z" fill="white"/>
            <path d="M101.624 75.9305C101.504 74.4791 101.141 73.0592 100.549 71.7325C99.4194 69.326 97.6837 67.5632 95.0386 66.9471C92.0076 66.2758 89.2796 66.9471 86.7999 68.8225C86.6306 68.9931 86.4353 69.1347 86.2214 69.242C86.1664 69.2137 86.1111 69.1861 86.1111 69.1577C86.0286 68.8776 85.9735 68.5983 85.8906 68.3185C85.6701 67.6189 85.3943 67.3671 84.6511 67.3671C83.8242 67.3671 82.9699 67.3949 82.1436 67.3671C81.5098 67.3388 80.9313 67.4225 80.4903 67.9265C80.4903 77.7206 80.4903 87.543 80.5174 97.3087C80.876 97.897 81.4268 98.0081 82.0606 97.9805C83.0529 97.9529 84.0447 97.9805 85.0363 97.9805C86.7725 97.9805 86.7725 97.9805 86.7725 96.2455V88.2707C86.7725 88.0751 86.6896 87.8512 86.8824 87.6829C88.268 88.7751 89.9307 89.4447 91.6768 89.6138C94.1014 89.8658 96.306 89.2496 98.1518 87.5708C99.5048 86.3044 100.495 84.6896 101.017 82.8977C101.761 80.6033 101.817 78.2808 101.623 75.9302L101.624 75.9305ZM176.376 80.0436C178.441 80.4351 180.557 80.4636 182.631 80.1279C183.836 79.9683 185.003 79.589 186.075 79.0082C187.315 78.28 188.224 77.2738 188.61 75.8745C189.574 72.3487 188.087 68.7944 184.477 67.4792C182.712 66.8844 180.838 66.7025 178.994 66.9473C174.64 67.4514 171.802 69.8862 170.507 74.1112C169.598 76.9937 169.708 79.9318 170.452 82.8421C171.416 86.5638 173.841 88.7747 177.506 89.5581C179.6 90.0343 181.721 89.95 183.815 89.614C184.926 89.4278 186.016 89.1279 187.067 88.7188C187.701 88.4671 188.032 88.0751 188.004 87.3474C187.977 86.6762 188.004 85.9765 188.004 85.2769C188.004 84.4379 187.673 84.1846 186.875 84.3817C186.076 84.5789 185.304 84.7459 184.505 84.9133C182.798 85.2674 181.039 85.2865 179.325 84.9695C176.983 84.4933 175.468 82.4507 175.605 79.932C175.864 79.9558 176.121 79.9928 176.376 80.0436ZM138.463 89.2226H134.77C133.806 89.2226 133.558 88.9427 133.558 87.9914V68.5707C133.558 68.3443 133.586 68.1187 133.641 67.8992C133.699 67.7401 133.804 67.6034 133.943 67.5081C134.081 67.4128 134.245 67.3637 134.412 67.3676H137.856C138.352 67.3676 138.655 67.6753 138.821 68.151C138.958 68.5429 139.041 68.9065 139.179 69.3263C139.455 69.3263 139.62 69.1307 139.813 69.0186C141.329 68.0675 142.926 67.2558 144.718 66.9198C146.082 66.6399 147.487 66.6399 148.851 66.9198C150.153 67.2016 151.298 67.9835 152.047 69.1023C152.095 69.1735 152.15 69.2392 152.212 69.2984C152.185 69.3263 152.212 69.3263 152.24 69.3822C152.929 68.9624 153.645 68.5146 154.389 68.1234C156.316 67.1049 158.473 66.622 160.643 66.7237C162.214 66.8079 163.647 67.2558 164.749 68.4311C165.796 69.5234 166.183 70.8657 166.292 72.3208C166.32 72.6285 166.32 72.9362 166.32 73.2719V87.7675C166.32 89.0265 166.154 89.1945 164.915 89.1945H161.552C161.331 89.1991 161.111 89.1898 160.891 89.1667C160.727 89.1469 160.574 89.0734 160.454 88.9573C160.335 88.8411 160.256 88.6887 160.23 88.523C160.184 88.2175 160.165 87.9083 160.175 87.5994V74.6431C160.203 74.1244 160.147 73.6044 160.009 73.1042C159.895 72.6805 159.653 72.3038 159.317 72.0276C158.981 71.7514 158.568 71.5897 158.136 71.5653C156.505 71.4637 154.875 71.7811 153.397 72.4883C153.291 72.5175 153.199 72.5846 153.138 72.6772C153.077 72.7698 153.052 72.8817 153.066 72.9921V87.7126C153.075 87.9843 153.056 88.2562 153.011 88.524C153.011 88.6147 152.993 88.7045 152.958 88.788C152.924 88.8714 152.872 88.9469 152.808 89.0097C152.743 89.0725 152.667 89.1213 152.584 89.1533C152.5 89.1852 152.411 89.1996 152.322 89.1956C151.909 89.2236 151.495 89.2236 151.054 89.2236H148.134C147.114 89.2236 146.894 88.9714 146.894 87.9365V74.6987C146.903 74.2099 146.856 73.7217 146.756 73.2436C146.662 72.7868 146.422 72.3744 146.073 72.0707C145.724 71.7671 145.286 71.5893 144.827 71.565C143.166 71.4566 141.505 71.7842 140.005 72.5164C139.897 72.5489 139.806 72.6222 139.749 72.721C139.693 72.8199 139.676 72.9369 139.702 73.048V87.963C139.702 88.9987 139.482 89.2226 138.463 89.2226ZM110.579 89.1945H106.997C106.794 89.1991 106.592 89.1898 106.391 89.1667C106.217 89.1486 106.055 89.0684 105.934 88.9402C105.812 88.8121 105.74 88.6444 105.729 88.4671C105.706 88.244 105.697 88.0196 105.701 87.7953V68.7668C105.701 67.4792 105.839 67.3393 107.107 67.3393H109.752C110.469 67.3393 110.799 67.591 110.992 68.2904C111.185 68.9897 111.351 69.6896 111.516 70.4451C111.706 70.3938 111.872 70.2748 111.984 70.1096C112.481 69.605 113.005 69.1285 113.554 68.6823C114.982 67.5595 116.768 67.0115 118.569 67.1434C119.286 67.1713 119.534 67.3952 119.589 68.0948C119.644 69.0462 119.616 70.0256 119.616 70.977C119.639 71.3604 119.621 71.7452 119.561 72.1245C119.451 72.6285 119.258 72.8241 118.762 72.88C118.385 72.8988 118.007 72.8896 117.632 72.8524C115.786 72.6844 113.996 73.048 112.259 73.6358C111.874 73.776 111.874 74.0553 111.874 74.364V87.7958C111.878 88.0389 111.869 88.282 111.846 88.524C111.838 88.6969 111.765 88.86 111.642 88.9798C111.519 89.0995 111.355 89.1668 111.185 89.1677C110.984 89.1908 110.781 89.2001 110.579 89.1956L110.579 89.1945ZM127.221 89.1386H123.391C123.262 89.1431 123.132 89.1338 123.005 89.1108C122.816 89.0988 122.637 89.019 122.501 88.8856C122.365 88.7521 122.28 88.5738 122.261 88.3825C122.238 88.1596 122.229 87.9354 122.234 87.7113C122.261 84.6046 122.261 81.415 122.261 78.2249V68.2914C122.289 67.6202 122.537 67.3684 123.198 67.3403C124.63 67.3126 126.063 67.3126 127.496 67.3403C128.13 67.3403 128.323 67.5359 128.378 68.1796C128.401 68.4216 128.41 68.6647 128.405 68.9078V87.5446C128.405 87.8522 128.378 88.1599 128.35 88.4681C128.337 88.6393 128.263 88.7996 128.141 88.9184C128.019 89.0372 127.858 89.1061 127.689 89.1118C127.534 89.1345 127.377 89.1436 127.221 89.1386ZM95.0386 81.723C94.8512 82.583 94.4089 83.3641 93.7713 83.9612C93.0678 84.5835 92.1689 84.9308 91.236 84.9407C89.8394 85.026 88.4468 84.7161 87.2132 84.0455C87.065 83.98 86.9404 83.8694 86.8565 83.7291C86.7726 83.5887 86.7336 83.4254 86.7449 83.2616V78.1968C86.7449 76.5182 86.7728 74.8392 86.7449 73.1601C86.7302 72.9741 86.7762 72.7883 86.8759 72.6315C86.9755 72.4747 87.1232 72.3555 87.2962 72.2925C88.8115 71.5643 90.3818 71.2293 92.035 71.5643C92.6045 71.645 93.144 71.8725 93.6023 72.2252C94.0605 72.5779 94.4222 73.0439 94.6527 73.5788C95.0676 74.4756 95.3109 75.4442 95.3697 76.4332C95.5341 78.2249 95.5341 80.0161 95.0386 81.723ZM175.687 75.7627C175.777 75.0982 175.953 74.4488 176.211 73.8314C177.037 71.7884 178.772 71.0891 180.537 71.2009C181.038 71.2295 181.532 71.343 181.996 71.5369C182.344 71.6877 182.646 71.9311 182.869 72.2413C183.092 72.5516 183.228 72.9173 183.264 73.2998C183.347 73.7849 183.318 74.2827 183.181 74.7549C182.85 75.7627 182.051 76.1825 181.087 76.3781C180.501 76.5233 179.896 76.5706 179.295 76.5182C178.206 76.5178 177.12 76.4335 176.044 76.2662C175.63 76.2103 175.63 76.2103 175.685 75.7627H175.687ZM125.458 57.3213C125.898 57.302 126.338 57.3685 126.753 57.5171C128.241 58.0212 129.013 59.3377 128.875 61.043C128.822 61.7497 128.534 62.4173 128.059 62.9359C127.583 63.4546 126.948 63.7937 126.258 63.8974C125.647 64.0094 125.022 64.0094 124.412 63.8974C122.841 63.5897 121.684 62.4149 121.794 60.3993C121.958 58.4128 123.253 57.3213 125.458 57.3213Z" fill="white"/>
        </g>
    </g>
    <defs>
        <filter id="filter0_di_1365_21545" x="0.72973" y="0.72973" width="380.541" height="188.541" filterUnits="userSpaceOnUse" color-interpolation-filters="sRGB">
            <feFlood flood-opacity="0" result="BackgroundImageFix"/>
            <feColorMatrix in="SourceAlpha" type="matrix" values="0 0 0 0 0 0 0 0 0 0 0 0 0 0 0 0 0 0 127 0" result="hardAlpha"/>
            <feOffset dy="3"/>
            <feGaussianBlur stdDeviation="5.13514"/>
            <feComposite in2="hardAlpha" operator="out"/>
            <feColorMatrix type="matrix" values="0 0 0 0 1 0 0 0 0 1 0 0 0 0 1 0 0 0 0.19 0"/>
            <feBlend mode="normal" in2="BackgroundImageFix" result="effect1_dropShadow_1365_21545"/>
            <feBlend mode="normal" in="SourceGraphic" in2="effect1_dropShadow_1365_21545" result="shape"/>
            <feColorMatrix in="SourceAlpha" type="matrix" values="0 0 0 0 0 0 0 0 0 0 0 0 0 0 0 0 0 0 127 0" result="hardAlpha"/>
            <feMorphology radius="2" operator="dilate" in="SourceAlpha" result="effect2_innerShadow_1365_21545"/>
            <feOffset dy="5"/>
            <feGaussianBlur stdDeviation="3"/>
            <feComposite in2="hardAlpha" operator="arithmetic" k2="-1" k3="1"/>
            <feColorMatrix type="matrix" values="0 0 0 0 1 0 0 0 0 1 0 0 0 0 1 0 0 0 0.25 0"/>
            <feBlend mode="normal" in2="shape" result="effect2_innerShadow_1365_21545"/>
        </filter>
        <clipPath id="clip0_1365_21545">
            <rect width="220.51" height="68.9093" fill="white" transform="translate(80.4903 57.312)"/>
        </clipPath>
    </defs>
</svg>
