<svg width="171" height="69" viewBox="0 0 171 69" fill="none" xmlns="http://www.w3.org/2000/svg">
<path d="M0.136719 10.4097C0.136719 4.96207 4.51482 0.545898 9.91548 0.545898H160.508C165.909 0.545898 170.287 4.96207 170.287 10.4097V58.7423C170.287 64.1899 165.909 68.6061 160.508 68.6061H9.91548C4.51482 68.6061 0.136719 64.1899 0.136719 58.7423V10.4097Z" fill="white"/>
<path d="M52.4809 21.2621C53.8826 19.4668 54.5574 17.1742 54.3626 14.8701C52.1945 15.0965 50.1911 16.1749 48.7607 17.8853C48.052 18.7069 47.5087 19.668 47.1632 20.7118C46.8177 21.7556 46.6769 22.861 46.7492 23.9625C47.8396 23.9999 48.9238 23.7758 49.9177 23.3074C50.9116 22.8391 51.7886 22.139 52.4808 21.2614" fill="black"/>
<path d="M52.4809 21.1053C53.8431 19.3407 54.515 17.1062 54.3626 14.8484C52.1945 15.0748 50.1911 16.1532 48.7607 17.8636C48.052 18.6852 47.5087 19.6463 47.1632 20.6901C46.8177 21.7339 46.6769 22.8393 46.7492 23.9408C47.8515 23.9699 48.9449 23.7283 49.9407 23.2356C50.9365 22.7428 51.8069 22.0134 52.4809 21.1053Z" fill="black"/>
<path d="M54.3192 24.3241C51.2046 24.1213 48.5444 26.1697 47.1168 26.1697C45.6892 26.1697 43.3535 24.4142 40.8666 24.4594C39.2548 24.5033 37.6825 24.9882 36.308 25.8653C34.9335 26.7425 33.8052 27.9808 33.0366 29.4558C29.6626 35.4874 32.1499 44.4907 35.4375 49.3073C37.0163 51.8056 38.9198 54.3039 41.4503 54.3039C43.9808 54.3039 44.7595 52.7059 47.6576 52.7059C50.5557 52.7059 51.3777 54.3039 53.9084 54.2588C56.439 54.2138 58.1476 51.7606 59.7265 49.3972C60.8483 47.678 61.7226 45.7976 62.3219 43.8154C60.8204 43.123 59.5458 41.9897 58.6544 40.5544C57.763 39.1191 57.2935 37.4443 57.3036 35.7353C57.3267 34.227 57.7154 32.7492 58.4338 31.439C59.1522 30.1287 60.177 29.0285 61.413 28.2404C60.6258 27.0733 59.5892 26.1122 58.3846 25.4326C57.18 24.7531 55.8404 24.3736 54.471 24.3241" fill="black"/>
<path d="M78.9111 21.1288V27.3634H83.7126V31.6621H78.9111V46.2923C78.9111 48.5656 79.8628 49.6235 82.0036 49.6235C82.5828 49.6232 83.1611 49.578 83.7338 49.4883V53.7646C82.7782 53.9484 81.8072 54.0313 80.8356 54.0122C75.6663 54.0122 73.6332 51.9866 73.6332 46.8548V31.7297H70.0002V27.3634H73.6987V21.1288H78.9111Z" fill="black"/>
<path d="M101.297 53.9443H95.7165L86.5027 27.3632H92.083L98.4849 48.5649L104.974 27.3632H110.446L101.297 53.9443Z" fill="black"/>
<path d="M138.995 38.0075H128.83V27.4066H123.985V38.0075H113.863V42.9815H123.985V53.65H128.83V42.9815H138.995V38.0075Z" fill="black"/>
</svg>
