<svg width="28" height="28" viewBox="0 0 28 28" fill="none" xmlns="http://www.w3.org/2000/svg">
<rect width="28" height="28" rx="14" fill="#252525"/>
<path d="M21.2983 9.23943C21.8106 8.72713 21.8106 7.89653 21.2983 7.38423C20.786 6.87192 19.9554 6.87192 19.4431 7.38423L7.38423 19.4431C6.87192 19.9554 6.87193 20.786 7.38423 21.2983C7.89653 21.8106 8.72713 21.8106 9.23943 21.2983L21.2983 9.23943Z" fill="#606060"/>
<path d="M7.39872 9.23943C6.88642 8.72713 6.88642 7.89653 7.39872 7.38423C7.91102 6.87192 8.74163 6.87192 9.25393 7.38423L21.3128 19.4431C21.8251 19.9554 21.8251 20.786 21.3128 21.2983C20.8005 21.8106 19.9699 21.8106 19.4576 21.2983L7.39872 9.23943Z" fill="#606060"/>
</svg>
