<svg width="15" height="16" viewBox="0 0 15 16" fill="none" xmlns="http://www.w3.org/2000/svg">
<path fill-rule="evenodd" clip-rule="evenodd" d="M14.6714 2.40683C15.1095 1.97049 15.1095 1.26347 14.6714 0.827087C14.2331 0.390971 13.5229 0.390971 13.0846 0.827087L6.67275 7.21013C6.23467 7.64647 6.23467 8.35349 6.67275 8.78987L13.0846 15.1729C13.5229 15.609 14.2331 15.609 14.6714 15.1729C15.1095 14.7366 15.1095 14.0296 14.6714 13.5932L9.04994 7.9969L14.6714 2.40683Z" fill="#929292"/>
<path fill-rule="evenodd" clip-rule="evenodd" d="M0.328561 2.40683C-0.10952 1.97049 -0.10952 1.26347 0.328561 0.827087C0.766866 0.390971 1.47708 0.390971 1.91543 0.827087L8.32725 7.21013C8.76533 7.64647 8.76533 8.35349 8.32725 8.78987L1.91543 15.1729C1.47712 15.609 0.766912 15.609 0.328561 15.1729C-0.10952 14.7366 -0.10952 14.0296 0.328561 13.5932L5.95006 7.9969L0.328561 2.40683Z" fill="#929292"/>
</svg>
