<svg width="171" height="69" viewBox="0 0 171 69" fill="none" xmlns="http://www.w3.org/2000/svg">
<path d="M0.711914 10.5493C0.711914 5.10172 5.09002 0.685547 10.4907 0.685547H161.084C166.484 0.685547 170.862 5.10172 170.862 10.5493V58.882C170.862 64.3296 166.484 68.7458 161.084 68.7458H10.4907C5.09002 68.7458 0.711914 64.3296 0.711914 58.882V10.5493Z" fill="url(#paint0_linear_1159_15887)"/>
<path d="M109.784 42.6842C108.265 43.0281 104.266 43.2261 104.266 43.2261L103.76 44.7895C103.76 44.7895 105.754 44.6231 107.21 44.7686C107.21 44.7686 107.685 44.7165 107.737 45.3002C107.747 45.6759 107.733 46.0519 107.695 46.426C107.695 46.426 107.664 46.7803 107.157 46.8638C106.608 46.9573 102.852 47.0928 102.852 47.0928L102.24 49.1251C102.24 49.1251 102.019 49.5941 102.525 49.4586C103 49.3335 106.935 48.604 107.452 48.7083C108.001 48.8438 108.613 49.5629 108.434 50.2299C108.223 51.0428 104.298 53.5233 101.903 53.3462C101.903 53.3462 100.647 53.4296 99.5816 51.7515C98.5898 50.157 99.9614 47.1241 99.9614 47.1241C99.9614 47.1241 99.3389 45.7067 99.7931 45.2377C99.7931 45.2377 100.067 44.9981 100.848 44.9356L101.808 42.9654C101.808 42.9654 100.711 43.0383 100.057 42.2462C99.4451 41.4854 99.4029 41.1415 99.8671 40.9331C100.363 40.6933 104.931 39.87 108.076 39.9742C108.076 39.9742 109.173 39.87 110.112 41.746C110.101 41.7462 110.565 42.507 109.784 42.6842ZM97.9566 50.2508C97.5551 51.1888 96.49 52.1893 95.1712 51.564C93.8632 50.9386 91.7844 46.7385 91.7844 46.7385C91.7844 46.7385 90.9931 45.1752 90.8454 45.2064C90.8454 45.2064 90.6771 44.9041 90.5711 46.6136C90.4652 48.3232 90.5922 51.6475 89.9065 52.1686C89.2523 52.6898 88.461 52.4813 88.0495 51.8664C87.6802 51.2619 87.5219 49.8237 87.7224 47.3015C87.9651 44.7794 88.5559 42.0905 89.3154 41.2463C90.0751 40.4125 90.687 41.017 90.9191 41.2359C90.9191 41.2359 91.932 42.1427 93.6096 44.8107L93.905 45.3006C93.905 45.3006 95.4243 47.8227 95.5825 47.8122C95.5825 47.8122 95.7091 47.9274 95.8146 47.8436C95.9729 47.802 95.9096 46.989 95.9096 46.989C95.9096 46.989 95.593 44.2479 94.2109 39.5996C94.0887 39.2366 94.0669 38.848 94.1476 38.4738C94.2847 37.9214 94.8439 38.182 94.8439 38.182C94.8439 38.182 96.9963 39.245 98.0299 42.7052C99.054 46.1965 98.3581 49.3128 97.9566 50.2508ZM87.3846 41.3606C87.2053 41.715 87.0997 42.2257 86.1925 42.3612C86.1925 42.3612 77.5092 42.9448 77.0977 43.5493C77.0977 43.5493 76.7917 43.9037 77.2661 44.0078C77.7407 44.1016 79.7033 44.3622 80.6528 44.4142C81.6657 44.4247 85.0841 44.4559 86.308 45.9671C86.308 45.9671 87.0361 46.6862 87.0044 48.3121C86.9728 49.9797 86.6772 50.5637 86.0231 51.1678C85.3367 51.7307 79.45 54.3361 75.6517 50.334C75.6517 50.334 73.9002 48.4058 76.253 46.9468C76.253 46.9468 77.9518 45.9361 82.267 47.124C82.267 47.124 83.5751 47.5928 83.512 48.062C83.4382 48.5622 82.4359 49.0937 80.9798 49.0625C79.5661 49.0208 78.5321 48.3538 78.7325 48.458C78.9224 48.531 77.2132 47.6452 76.6863 48.2495C76.1588 48.8019 76.2848 49.1458 76.8028 49.4898C78.1216 50.2298 83.2176 49.9692 84.737 48.3017C84.737 48.3017 85.3384 47.6237 84.4205 47.0719C83.5025 46.5508 80.8754 46.2382 79.8519 46.186C78.8707 46.1339 75.2202 46.1965 74.6926 45.2376C74.6926 45.2376 74.1651 44.5914 74.7453 42.7571C75.3572 40.8394 79.6092 40.0995 81.445 39.9328C81.445 39.9328 86.4988 39.7556 87.4272 40.7771C87.4899 40.9697 87.4746 41.1788 87.3846 41.3606ZM73.0356 52.6059C72.4237 53.0536 71.126 52.856 70.7562 52.3558C70.3868 51.908 70.2603 50.1254 70.3341 47.3322C70.408 44.5079 70.4713 41.006 71.0832 40.4537C71.7374 39.8908 72.1384 40.3807 72.3913 40.7664C72.6656 41.1415 72.9926 41.5584 73.0666 42.4443C73.1299 43.3303 73.3409 47.9785 73.3409 47.9785C73.3409 47.9785 73.6159 52.1681 73.0356 52.6059ZM74.3545 37.619C72.5714 38.2026 71.3476 38.0046 70.3138 37.5669C69.8605 38.3485 69.5964 38.5883 69.2482 38.6404C68.7417 38.6925 68.2881 37.89 68.2036 37.6297C68.1191 37.4317 67.8765 37.0982 68.172 36.3062C67.159 35.4099 67.0851 34.2009 67.254 33.388C67.5072 32.45 69.2165 28.8857 74.418 28.4688C74.418 28.4688 76.9607 28.2812 77.3934 29.6257H77.4672C77.4672 29.6257 79.9361 29.636 79.8834 31.8038C79.851 33.9818 77.1399 36.6915 74.3545 37.619ZM69.5011 32.7935C68.9736 33.6273 68.9525 34.1276 69.1951 34.4715C69.7965 33.5647 70.8938 32.1368 72.5081 31.053C71.2631 31.1573 70.2186 31.6887 69.5011 32.7935ZM76.6863 31.397C75.0508 31.6368 72.5187 33.8044 71.3158 35.5763C73.1623 35.9098 76.4224 35.7847 77.8678 32.8769C77.8574 32.8769 78.5537 31.074 76.6863 31.397ZM121.084 48.1872C120.103 49.8759 117.349 53.3981 113.677 52.5753C112.464 55.483 111.451 58.4117 110.871 62.8099C110.871 62.8099 110.744 63.6646 110.027 63.3623C109.32 63.1122 108.138 61.9448 107.906 60.3294C107.653 58.2033 108.613 54.6076 110.565 50.4914C109.995 49.5742 109.605 48.2612 109.942 46.3955C109.942 46.3955 110.438 42.9353 113.952 39.8087C113.952 39.8087 114.374 39.4439 114.616 39.5586C114.891 39.6737 114.764 40.7987 114.543 41.3408C114.321 41.8828 112.749 44.5717 112.749 44.5717C112.749 44.5717 111.768 46.3852 112.042 47.813C113.888 45.0095 118.088 39.3503 120.693 41.1325C121.569 41.7474 121.97 43.0918 121.97 44.5406C121.96 45.8212 121.654 47.1762 121.084 48.1872ZM120.324 43.748C120.324 43.748 120.177 42.6328 119.079 43.8631C118.13 44.8949 116.421 46.8439 115.039 49.4807C116.484 49.3244 117.877 48.5427 118.299 48.1467C118.984 47.5409 120.578 45.9151 120.324 43.7473V43.748ZM69.1002 45.1653C68.8997 47.6875 67.9185 51.9292 60.9655 54.0241C56.3758 55.3894 52.0394 54.7327 49.676 54.1393C49.6233 55.0668 49.5177 55.4628 49.3701 55.6192C49.1696 55.8172 47.6714 56.6718 46.8484 55.4628C46.4791 54.8897 46.2893 53.8474 46.1837 52.9198C40.866 50.5019 38.4183 47.0209 38.3233 46.8645C38.2068 46.7494 36.994 45.4992 38.2068 43.9672C39.3465 42.581 43.0707 41.1948 46.4259 40.6321C46.5425 37.7972 46.8792 35.6607 47.2807 34.681C47.7661 33.545 48.3779 34.5659 48.9055 35.3376C49.3487 35.9108 49.6124 38.3808 49.6335 40.3506C51.8281 40.2463 53.1258 40.4027 55.5735 40.8405C58.7595 41.4136 60.8912 43.0186 60.7013 44.8426C60.5641 46.6351 58.897 47.3756 58.264 47.4268C57.5993 47.4789 56.5653 47.0099 56.5653 47.0099C55.8583 46.6763 56.5125 46.3845 57.3671 46.0198C58.2956 45.572 58.0846 45.113 58.0846 45.113C57.7365 44.1124 53.6006 43.4142 49.4851 43.4142C49.464 45.6549 49.58 49.3758 49.6329 51.5435C51.2897 51.8668 52.977 52.0136 54.6655 51.9812C54.6655 51.9812 65.1742 51.6894 65.4907 45.0609C65.8178 38.422 55.0133 32.0541 47.0267 30.0322C39.0503 27.9687 34.5345 29.4069 34.1441 29.6049C33.7221 29.8133 34.1124 29.8759 34.1124 29.8759C34.5142 29.9483 34.9094 30.0529 35.2941 30.1886C36.0854 30.4387 35.4734 30.8451 35.4734 30.8451C34.1124 31.2724 32.5825 31.0014 32.2875 30.3866C31.9924 29.7718 32.488 29.2194 33.0577 28.4272C33.6275 27.5935 34.25 27.6247 34.25 27.6247C44.1149 24.2473 56.1324 30.3553 56.1324 30.3553C67.391 35.9932 69.3113 42.6008 69.1002 45.1647V45.1653ZM39.3256 44.8214C38.2072 45.3634 38.9775 46.145 38.9775 46.145C41.0771 48.3754 43.662 49.7719 46.1204 50.637C46.4053 46.7912 46.3631 45.4364 46.3947 43.4984C42.5543 43.7577 40.3386 44.3622 39.3259 44.8208L39.3256 44.8214Z" fill="white"/>
<path d="M141.975 44.0292V45.4049C141.975 45.4762 141.961 45.5469 141.934 45.6129C141.906 45.6788 141.866 45.7388 141.815 45.7892C141.764 45.8396 141.703 45.8795 141.637 45.9066C141.57 45.9336 141.498 45.9473 141.426 45.9469H134.789C134.789 46.2907 134.8 46.593 134.8 46.8744C134.809 48.7298 134.714 50.5844 134.515 52.4294C134.502 52.5623 134.44 52.6858 134.341 52.7762C134.242 52.8667 134.112 52.9176 133.977 52.9193H132.542C132.47 52.9194 132.4 52.9047 132.334 52.876C132.269 52.8474 132.21 52.8054 132.162 52.753C132.113 52.6999 132.077 52.637 132.055 52.5685C132.033 52.5 132.026 52.4276 132.036 52.3564C132.238 50.5359 132.336 48.7057 132.331 46.8744C132.331 46.5826 132.331 46.2803 132.32 45.9469H125.758C125.686 45.9473 125.614 45.9336 125.548 45.9066C125.481 45.8795 125.42 45.8396 125.369 45.7892C125.318 45.7388 125.278 45.6788 125.25 45.6129C125.223 45.5469 125.209 45.4762 125.209 45.4049V44.0292C125.209 43.9579 125.223 43.8872 125.25 43.8212C125.278 43.7552 125.318 43.6953 125.369 43.6449C125.42 43.5945 125.481 43.5546 125.548 43.5275C125.614 43.5005 125.686 43.4868 125.758 43.4872H132.226C132.095 41.2748 131.809 39.0739 131.371 36.9004C131.359 36.8348 131.362 36.7675 131.378 36.7029C131.395 36.6383 131.424 36.5778 131.466 36.5252C131.507 36.4734 131.56 36.4315 131.621 36.4027C131.681 36.3739 131.747 36.3589 131.814 36.3589H133.365C133.483 36.3593 133.596 36.4001 133.687 36.4743C133.777 36.5484 133.839 36.6513 133.861 36.7653C134.288 38.9859 134.569 41.2313 134.705 43.4875H141.426C141.571 43.4901 141.709 43.548 141.811 43.6491C141.913 43.7501 141.972 43.8863 141.975 44.0292Z" fill="white"/>
<path d="M132.943 33.1165C129.773 25.414 124.537 18.7108 117.799 13.7275C111.06 8.74421 103.075 5.66929 94.6998 4.83334C86.325 3.99738 77.8779 5.43201 70.2666 8.98298C62.6554 12.5339 56.1679 18.067 51.5015 24.9872C51.4552 25.0553 51.4253 25.133 51.4143 25.2144C51.4033 25.2957 51.4114 25.3784 51.438 25.4562C51.4628 25.5346 51.5065 25.6059 51.5653 25.664C51.6241 25.722 51.6963 25.7652 51.7757 25.7897L52.9784 26.1961C53.047 26.2159 53.118 26.2264 53.1894 26.2274C53.2993 26.2259 53.4074 26.1987 53.5046 26.1479C53.6018 26.0972 53.6854 26.0244 53.7486 25.9355C57.7679 20.085 63.1761 15.2955 69.5011 11.9854C75.826 8.67529 82.8752 6.94527 90.0329 6.94644C98.6567 6.94777 107.089 9.45812 114.278 14.1641C121.466 18.8702 127.092 25.5634 130.453 33.4083C130.501 33.5218 130.581 33.6189 130.685 33.6874C130.788 33.756 130.909 33.793 131.034 33.7939H132.469C132.55 33.7948 132.631 33.7752 132.703 33.7369C132.775 33.6986 132.836 33.6429 132.88 33.575C132.931 33.5111 132.964 33.4348 132.975 33.3542C132.986 33.2736 132.975 33.1915 132.943 33.1165ZM130.738 33.6063C130.767 33.6276 130.799 33.6451 130.833 33.6584C130.801 33.6376 130.77 33.6272 130.738 33.6063Z" fill="url(#paint1_radial_1159_15887)"/>
<defs>
<linearGradient id="paint0_linear_1159_15887" x1="85.7872" y1="0.685547" x2="85.7872" y2="68.7458" gradientUnits="userSpaceOnUse">
<stop stop-color="#05134E"/>
<stop offset="1" stop-color="#0E2279"/>
</linearGradient>
<radialGradient id="paint1_radial_1159_15887" cx="0" cy="0" r="1" gradientUnits="userSpaceOnUse" gradientTransform="translate(59.1944 -142.596) rotate(-90) scale(394.737 52.4098)">
<stop stop-color="white"/>
<stop offset="0.01" stop-color="white"/>
<stop offset="0.03" stop-color="#CBFFFF"/>
<stop offset="0.06" stop-color="#96FFFF"/>
<stop offset="0.08" stop-color="#68FFFF"/>
<stop offset="0.11" stop-color="#43FFFF"/>
<stop offset="0.14" stop-color="#25FFFF"/>
<stop offset="0.16" stop-color="#11FFFF"/>
<stop offset="0.19" stop-color="#04FFFF"/>
<stop offset="0.22" stop-color="#00FFFF"/>
<stop offset="1" stop-color="#0000FF" stop-opacity="0"/>
</radialGradient>
</defs>
</svg>
