<svg width="41" height="41" viewBox="0 0 41 41" fill="none" xmlns="http://www.w3.org/2000/svg">
<path d="M0.915039 5.68628C0.915039 2.62296 3.39835 0.139648 6.46167 0.139648H35.4274C38.4907 0.139648 40.974 2.62296 40.974 5.68628V34.652C40.974 37.7153 38.4907 40.1986 35.4274 40.1986H6.46167C3.39835 40.1986 0.915039 37.7153 0.915039 34.652V5.68628Z" fill="#333333"/>
<path d="M9.72827 11.2324C9.46179 11.2324 9.20903 11.2885 8.97611 11.3807L20.48 21.433C20.9772 21.8674 21.5069 21.8679 22.0053 21.433L33.5304 11.3807C33.2977 11.2882 33.0447 11.2324 32.7782 11.2324H9.72808H9.72827ZM7.71562 12.9802C7.70261 13.0727 7.69434 13.1699 7.69434 13.2661V26.825C7.69434 27.9517 8.60133 28.859 9.72829 28.859H32.7784C33.9051 28.859 34.8124 27.952 34.8124 26.825V13.2661C34.8124 13.1699 34.8041 13.0727 34.7911 12.98L23.3399 22.9694C22.1451 24.0115 20.3399 24.0131 19.145 22.9694L7.71561 12.98L7.71562 12.9802Z" fill="#AEAEAE"/>
</svg>
