<svg width="171" height="69" viewBox="0 0 171 69" fill="none" xmlns="http://www.w3.org/2000/svg">
<path d="M0.711914 10.2691C0.711914 4.82145 5.09002 0.405273 10.4907 0.405273H161.084C166.484 0.405273 170.862 4.82145 170.862 10.2691V58.6017C170.862 64.0493 166.484 68.4655 161.084 68.4655H10.4907C5.09002 68.4655 0.711914 64.0493 0.711914 58.6017V10.2691Z" fill="url(#paint0_linear_1159_15893)"/>
<path d="M34.8795 45.5944H28.6707V37.0066H24.6575V45.5728H18.3137V23.4616H24.6575V31.7233H28.6701V23.4616H34.8789L34.8795 45.5944ZM63.304 45.6814C69.6478 45.6814 74.826 40.5505 74.826 34.3324C74.8256 27.9839 69.6474 23.092 63.3035 23.092C56.87 23.092 53.6197 27.6359 52.8351 29.4622C52.8351 26.7228 50.0106 23.4404 46.7379 23.4404H36.1571V45.5728H46.0203C50.0329 45.5728 52.8574 42.246 52.8574 39.3329C53.7317 41.1593 56.87 45.6814 63.3034 45.6814H63.304ZM45.2135 36.7022C46.1325 36.7022 46.8723 37.5725 46.8723 38.5502C46.8723 39.5939 46.1326 40.4417 45.2135 40.4417H42.075V36.7022H45.2135ZM45.2135 28.397C46.1325 28.397 46.8723 29.2673 46.8723 30.2449C46.8723 31.2226 46.1326 32.0929 45.2135 32.0929H42.075V28.397H45.2135ZM49.3829 34.3324C50.1226 34.2889 51.3107 33.4621 51.7815 32.9848C51.6022 33.5719 51.6022 35.4413 51.7815 36.0286C51.2658 35.3108 50.1226 34.441 49.3829 34.3324ZM57.5201 34.3324C57.5267 33.2226 57.8719 32.1396 58.5121 31.2198C59.1524 30.3001 60.0591 29.5847 61.1179 29.164C62.1767 28.7432 63.3402 28.6359 64.4618 28.8556C65.5834 29.0752 66.6128 29.612 67.4204 30.3983C68.2279 31.1845 68.7774 32.185 68.9995 33.2737C69.2216 34.3623 69.1065 35.4904 68.6686 36.5157C68.2308 37.541 67.4897 38.4176 66.5389 39.035C65.5882 39.6525 64.4702 39.9831 63.326 39.9852C62.5606 39.9887 61.8022 39.8447 61.0947 39.5616C60.3873 39.2785 59.7448 38.8619 59.2047 38.336C58.6646 37.8101 58.2376 37.1853 57.9484 36.4981C57.6593 35.8108 57.5135 35.0746 57.5201 34.3324ZM63.3035 38.7681C64.2048 38.7659 65.0852 38.5048 65.8336 38.0177C66.582 37.5307 67.1649 36.8396 67.5087 36.0316C67.8526 35.2236 67.9419 34.3349 67.7655 33.4777C67.5891 32.6205 67.1549 31.8332 66.5176 31.2151C65.8803 30.597 65.0686 30.1758 64.1847 30.0047C63.3009 29.8337 62.3847 29.9203 61.5516 30.2538C60.7185 30.5873 60.0059 31.1526 59.5038 31.8785C59.0016 32.6044 58.7324 33.4583 58.7301 34.3324C58.7341 35.5076 59.2172 36.6336 60.074 37.4645C60.9309 38.2955 62.0918 38.7644 63.3035 38.7681ZM107.957 31.2886C107.845 25.9401 103.944 23.092 99.1473 23.092C96.5022 23.092 94.1484 23.94 92.5344 25.614C90.8982 23.94 88.5444 23.092 85.8993 23.092C81.1021 23.092 77.2011 25.9401 77.0671 31.3102V43.572C77.0668 43.8404 77.1211 44.1063 77.2269 44.3544C77.3327 44.6025 77.4879 44.8279 77.6836 45.0177C77.8793 45.2075 78.1117 45.358 78.3675 45.4606C78.6233 45.5632 78.8974 45.6159 79.1742 45.6156H81.1468C81.1941 45.6162 81.241 45.6076 81.2848 45.5903C81.3286 45.573 81.3684 45.5474 81.4018 45.515C81.4352 45.4826 81.4616 45.444 81.4794 45.4016C81.4972 45.3591 81.5061 45.3136 81.5055 45.2678V31.3537C81.5951 28.7007 83.523 27.3098 85.8991 27.3098C88.2753 27.3098 90.2255 28.7013 90.2928 31.3537V43.572C90.2924 43.8405 90.3466 44.1064 90.4524 44.3545C90.5581 44.6027 90.7133 44.8281 90.909 45.018C91.1047 45.2079 91.3371 45.3585 91.5929 45.4611C91.8487 45.5638 92.1229 45.6164 92.3997 45.6162H94.3723C94.4196 45.6167 94.4665 45.6082 94.5103 45.5909C94.5541 45.5736 94.5939 45.548 94.6273 45.5156C94.6607 45.4832 94.6871 45.4446 94.7049 45.4021C94.7227 45.3597 94.7316 45.3142 94.731 45.2683V31.3537C94.8207 28.7007 96.7485 27.3098 99.1246 27.3098C101.501 27.3098 103.451 28.7013 103.518 31.3537V43.572C103.518 43.8404 103.572 44.1063 103.678 44.3544C103.784 44.6025 103.939 44.8279 104.135 45.0177C104.33 45.2075 104.563 45.358 104.819 45.4606C105.074 45.5632 105.349 45.6159 105.625 45.6156H107.598C107.645 45.6162 107.692 45.6076 107.736 45.5903C107.78 45.573 107.819 45.5474 107.853 45.515C107.886 45.4826 107.913 45.444 107.931 45.4016C107.948 45.3591 107.957 45.3136 107.957 45.2678V31.3537C107.979 31.332 107.957 31.3104 107.957 31.2886ZM152.543 23.4616H149.181C148.725 23.4642 148.276 23.5745 147.874 23.7828C147.472 23.9912 147.128 24.2913 146.872 24.6574L143.151 30.0055C143.04 30.1661 142.89 30.2977 142.714 30.3887C142.538 30.4797 142.342 30.5273 142.142 30.5273C141.943 30.5273 141.747 30.4797 141.571 30.3887C141.395 30.2977 141.245 30.1661 141.134 30.0055L137.412 24.6574C137.157 24.2913 136.813 23.9911 136.41 23.7828C136.008 23.5745 135.56 23.4642 135.104 23.4616H131.741C131.694 23.4616 131.648 23.4739 131.607 23.4971C131.567 23.5203 131.533 23.5535 131.51 23.5934C131.487 23.6333 131.476 23.6784 131.477 23.724C131.478 23.7696 131.492 23.8141 131.517 23.8529L138.152 33.3981C138.382 33.7369 138.505 34.1337 138.505 34.5395C138.505 34.9453 138.382 35.3421 138.152 35.6809L131.517 45.2031C131.489 45.2414 131.474 45.2863 131.472 45.3328C131.469 45.3793 131.48 45.4254 131.504 45.4661C131.527 45.5068 131.562 45.5403 131.603 45.563C131.645 45.5856 131.693 45.5965 131.741 45.5944H135.103C135.559 45.5918 136.008 45.4815 136.41 45.2732C136.812 45.0648 137.156 44.7647 137.412 44.3986L141.133 39.0505C141.244 38.8899 141.394 38.7583 141.57 38.6673C141.746 38.5763 141.943 38.5287 142.142 38.5287C142.341 38.5287 142.538 38.5763 142.714 38.6673C142.89 38.7583 143.04 38.8899 143.151 39.0505L146.872 44.3986C147.128 44.7647 147.472 45.0648 147.874 45.2732C148.276 45.4815 148.725 45.5918 149.181 45.5944H152.543C152.59 45.5943 152.636 45.5821 152.677 45.5589C152.717 45.5357 152.751 45.5025 152.774 45.4626C152.797 45.4227 152.808 45.3776 152.807 45.332C152.806 45.2864 152.792 45.2418 152.767 45.2031L146.132 35.6579C145.902 35.3191 145.779 34.9223 145.779 34.5165C145.779 34.1107 145.902 33.7138 146.132 33.3751L152.767 23.8299C152.793 23.7926 152.807 23.7492 152.808 23.7045C152.809 23.6598 152.798 23.6157 152.774 23.5772C152.751 23.5387 152.717 23.5073 152.676 23.4867C152.635 23.466 152.589 23.4569 152.543 23.4603L152.543 23.4616ZM129.993 23.4616H128.02C127.541 23.4629 127.078 23.6234 126.707 23.9162C126.335 24.209 126.079 24.6164 125.98 25.0705C124.209 23.7658 122.012 23.1137 119.614 23.1137C113.785 23.092 109.1 27.0055 109.1 34.3975C109.1 41.7895 113.808 45.7031 119.591 45.7031C121.967 45.7031 124.164 45.0508 125.913 43.7681C125.956 44.2739 126.195 44.7452 126.582 45.0877C126.968 45.4303 127.473 45.6189 127.997 45.616H129.969C130.016 45.6166 130.063 45.608 130.107 45.5907C130.151 45.5735 130.191 45.5479 130.224 45.5154C130.258 45.483 130.284 45.4445 130.302 45.402C130.32 45.3595 130.328 45.314 130.328 45.2682V23.7876C130.326 23.7018 130.29 23.6201 130.227 23.5594C130.164 23.4987 130.08 23.4637 129.992 23.4616H129.993ZM119.591 41.4851C116.139 41.4851 113.315 39.0286 113.315 34.3974C113.315 29.7661 116.117 27.3097 119.591 27.3097C123.066 27.3097 125.868 29.7661 125.868 34.3974C125.868 39.0286 123.066 41.4851 119.591 41.4851Z" fill="white"/>
<defs>
<linearGradient id="paint0_linear_1159_15893" x1="85.7872" y1="0.405273" x2="85.7872" y2="68.4655" gradientUnits="userSpaceOnUse">
<stop stop-color="#5822B4"/>
<stop offset="1" stop-color="#991EEB"/>
</linearGradient>
</defs>
</svg>
