<svg width="171" height="69" viewBox="0 0 171 69" fill="none" xmlns="http://www.w3.org/2000/svg">
<path d="M0.711914 10.69C0.711914 5.24235 5.09002 0.826172 10.4907 0.826172H161.084C166.484 0.826172 170.862 5.24234 170.862 10.69V59.0226C170.862 64.4702 166.484 68.8864 161.084 68.8864H10.4907C5.09002 68.8864 0.711914 64.4702 0.711914 59.0226V10.69Z" fill="#1CE783"/>
<path d="M96.4901 49.6518H103.984V19.5674H96.4901V49.6518ZM83.3324 41.0743C83.3264 41.588 83.1133 42.079 82.7388 42.4422C82.3643 42.8055 81.858 43.0121 81.3283 43.018H76.9719C76.4422 43.0121 75.9359 42.8055 75.5614 42.4422C75.1868 42.079 74.9738 41.588 74.9678 41.0743V28.9477H67.4735V41.6662C67.4735 46.8634 70.9155 49.6099 75.9693 49.6099H83.2887C87.9505 49.6099 90.7826 46.3564 90.7826 41.6662V28.9477H83.2889C83.3324 28.9477 83.3324 40.6941 83.3324 41.0743ZM125.463 28.9477V41.0745C125.457 41.5882 125.244 42.0792 124.869 42.4425C124.495 42.8057 123.989 43.0124 123.459 43.0182H119.102C118.573 43.0124 118.066 42.8057 117.692 42.4425C117.317 42.0792 117.104 41.5882 117.098 41.0745V28.9477H109.604V41.6662C109.604 46.8634 113.046 49.6099 118.1 49.6099H125.419C130.081 49.6099 132.913 46.3564 132.913 41.6662V28.9477H125.463ZM53.6623 28.9477H48.8702C47.1711 28.9477 46.3432 29.3702 46.3432 29.3702V19.5674H38.8491V49.6098H46.2998V37.5252C46.3058 37.0115 46.5189 36.5205 46.8934 36.1573C47.268 35.794 47.7742 35.5874 48.3039 35.5816H52.6604C53.19 35.5874 53.6963 35.794 54.0708 36.1573C54.4454 36.5205 54.6584 37.0115 54.6645 37.5252V49.6518H62.1583V36.5534C62.1583 31.0609 58.3677 28.9477 53.6623 28.9477Z" fill="white"/>
</svg>
