<svg width="31" height="31" viewBox="0 0 31 31" fill="none" xmlns="http://www.w3.org/2000/svg">
<path opacity="0.7" fill-rule="evenodd" clip-rule="evenodd" d="M8.50709 0.621094H22.4278C26.8997 0.621094 30.578 4.30826 30.578 8.79088V22.6724C30.578 27.155 26.8997 30.8421 22.4278 30.8421H8.50709C4.03523 30.8421 0.356934 27.155 0.356934 22.6724V8.79088C0.356934 4.30826 4.03523 0.621094 8.50709 0.621094ZM23.5813 5.89918C24.519 5.89918 25.3126 6.69463 25.3126 7.63462C25.3126 8.57461 24.519 9.37007 23.5813 9.37007C22.572 9.37007 21.85 8.57461 21.85 7.63462C21.85 6.69463 22.571 5.89918 23.5813 5.89918ZM15.4311 7.49009H15.5038C19.9756 7.49009 23.7266 11.2501 23.7266 15.7327C23.7266 20.287 19.9756 23.9753 15.5038 23.9753H15.4311C10.9593 23.9753 7.28099 20.2881 7.28099 15.7327C7.28099 11.2501 10.9593 7.49009 15.4311 7.49009ZM15.4311 10.3101H15.5038C18.4612 10.3101 20.9133 12.7682 20.9133 15.7327C20.9133 18.7689 18.4612 21.227 15.5038 21.227H15.4311C12.4738 21.227 10.0216 18.7689 10.0216 15.7327C10.0216 12.7682 12.4738 10.3101 15.4311 10.3101ZM8.57971 3.22479H22.3552C25.4568 3.22479 27.9805 5.7557 27.9805 8.86368V22.6006C27.9805 25.7097 25.4557 28.2395 22.3552 28.2395H8.57971C5.47815 28.2395 2.95438 25.7086 2.95438 22.6006V8.86368C2.95438 5.75464 5.4792 3.22479 8.57971 3.22479Z" fill="white"/>
</svg>
