<svg width="171" height="69" viewBox="0 0 171 69" fill="none" xmlns="http://www.w3.org/2000/svg">
<path d="M0.136719 10.69C0.136719 5.24235 4.51482 0.826172 9.91548 0.826172H160.508C165.909 0.826172 170.287 5.24234 170.287 10.69V59.0226C170.287 64.4702 165.909 68.8864 160.508 68.8864H9.91548C4.51482 68.8864 0.136719 64.4702 0.136719 59.0226V10.69Z" fill="#E31019"/>
<path d="M18.2274 52.995L19.2545 52.8381C19.7837 52.7439 21.0286 52.5869 21.9624 52.4613L23.6742 52.2415L23.9855 32.7765L30.4594 51.2997L36.4353 50.6718L36.5287 33.6242L36.5909 16.608H30.9885L30.9574 26.7173C30.9574 35.7277 30.8951 36.7323 30.5216 35.7591C29.0899 32.1486 24.0788 18.2719 23.9232 17.5185L23.7676 16.608H18.2274V52.995Z" fill="white"/>
<path d="M42.1933 50.201L43.3761 50.044C43.9986 49.9498 46.6441 49.7614 49.1964 49.5731C51.7797 49.3847 54.7365 49.1649 55.8259 49.0707L57.7556 48.8824V43.5452L53.3359 43.7649C50.8771 43.8591 48.6361 44.0475 48.356 44.1103C47.8269 44.2673 47.7957 43.9219 47.7957 39.8719V35.4452H55.2656V29.9511L51.5307 30.0766L47.7957 30.1708V22.2592H57.7556V16.6081H42.1933V50.201Z" fill="white"/>
<path d="M61.4905 22.2591H67.4042V48.4741L73.0066 48.2857V22.2591H78.9203V16.608H61.4905V22.2591Z" fill="white"/>
<path d="M82.6552 48.0032H84.0247C84.7717 48.0032 86.0167 48.0973 86.8259 48.1915L88.2576 48.4113V35.1311H95.7275V29.794H88.2576V22.2591H98.2175V16.608H82.6552V48.0032Z" fill="white"/>
<path d="M102.17 24.8335C102.046 29.3858 101.952 36.5753 101.952 40.8137V48.5369L107.959 48.7566C111.228 48.8822 114.682 49.0392 115.585 49.1648L117.203 49.3532V43.6706L107.555 43.2311V16.608H102.357L102.17 24.8335Z" fill="white"/>
<path d="M122.183 49.4787L123.366 49.6985C123.989 49.7927 125.171 49.8869 126.012 49.8869H127.475V16.608H122.183V49.4787Z" fill="white"/>
<path d="M135.598 24.5197C137.31 28.8836 138.804 32.7452 138.96 33.0906C139.146 33.5301 138.275 35.8534 135.66 41.9126C133.731 46.4649 132.143 50.2324 132.143 50.2951C132.143 50.3579 133.015 50.5149 134.104 50.6405C135.162 50.7661 136.47 50.923 136.968 51.0172L137.901 51.1742L139.893 46.4649C140.983 43.8591 141.979 41.7243 142.072 41.7243C142.165 41.7243 143.161 44.0475 144.251 46.8731L146.212 52.0219L148.919 52.3986C150.382 52.587 151.845 52.8382 152.125 52.9009C152.748 53.0893 152.903 53.4975 148.204 41.3789L145.247 33.7499L148.826 25.4615C150.787 20.9092 152.374 17.0476 152.374 16.8907C152.374 16.7023 151.191 16.6081 149.386 16.6709L146.398 16.7651L144.562 21.1604C143.535 23.5778 142.601 25.6499 142.477 25.7755C142.352 25.9011 141.449 23.9232 140.485 21.3802L138.742 16.7651L132.517 16.5767L135.598 24.5197Z" fill="white"/>
</svg>
