<svg width="171" height="69" viewBox="0 0 171 69" fill="none" xmlns="http://www.w3.org/2000/svg">
<path d="M0.136719 10.5493C0.136719 5.10172 4.51482 0.685547 9.91548 0.685547H160.508C165.909 0.685547 170.287 5.10172 170.287 10.5493V58.882C170.287 64.3296 165.909 68.7458 160.508 68.7458H9.91548C4.51482 68.7458 0.136719 64.3296 0.136719 58.882V10.5493Z" fill="#0057FF"/>
<path d="M79.8906 35.5275C79.6608 35.4336 79.2844 35.0178 79.9107 33.8599L81.366 30.8664C81.4103 30.7758 81.3039 30.6625 81.2376 30.7394L79.9652 31.9987C79.3632 32.6173 78.3418 34.3557 78.144 34.6774L76.5977 37.192C76.6345 37.1908 76.671 37.1993 76.7033 37.2166C76.7357 37.2338 76.7629 37.2592 76.782 37.2902C76.8012 37.3211 76.8116 37.3565 76.8123 37.3927C76.813 37.429 76.8039 37.4647 76.786 37.4964L75.3727 39.8329C75.0276 40.4122 75.6474 40.8172 75.7315 40.6838C77.9522 37.1634 79.2439 37.4441 79.2439 37.4441L79.9854 35.7544C79.9946 35.7343 79.9998 35.7126 80.0006 35.6905C80.0013 35.6684 79.9976 35.6463 79.9897 35.6256C79.9818 35.6049 79.9698 35.586 79.9545 35.5698C79.9391 35.5537 79.9207 35.5407 79.9003 35.5316C79.8977 35.5301 79.8939 35.5288 79.8906 35.5275ZM84.9396 6.11064C72.2422 6.11064 61.9493 16.2367 61.9493 28.7278C61.9428 33.5633 63.519 38.2724 66.4444 42.1572C67.4089 41.7469 67.9447 41.1351 68.3277 40.6661L72.6081 35.2802C72.6982 35.1667 72.816 35.0774 72.9505 35.0204L73.5949 34.7477L80.6333 25.9647L81.6539 25.1787L83.7515 22.3067C83.8058 22.2324 83.8718 22.167 83.9472 22.1133L84.8615 21.4588C84.9717 21.3799 85.1042 21.3369 85.2405 21.3358C85.3767 21.3347 85.5099 21.3755 85.6215 21.4526L86.7317 22.2193C87.3207 22.6259 87.7983 23.1697 88.1218 23.8023L92.5694 31.4877C92.642 31.6343 92.7653 31.7506 92.9172 31.8157C93.7894 32.2429 94.3224 32.3186 95.4638 33.5383C95.9966 34.1074 98.3307 36.6749 101.602 40.6665C102.077 41.3068 102.713 41.8146 103.448 42.1397C106.365 38.2579 107.936 33.5557 107.929 28.7278C107.929 16.2366 97.6365 6.11064 84.9396 6.11064ZM68.1492 29.9743L66.6586 29.4979L65.7378 30.7446V29.2041L64.247 28.7276L65.7378 28.2512V26.7095L66.6586 27.9566L68.1492 27.4802L67.2283 28.7278L68.1492 29.9743ZM67.7959 35.0175L67.3118 36.4834L66.8277 35.0175H65.2611L66.5286 34.1115L66.0445 32.6458L67.3119 33.5518L68.5795 32.6458L68.0954 34.1115L69.3631 35.0175H67.7959ZM68.0952 23.3431L68.5792 24.809L67.3117 23.903L66.0442 24.809L66.5283 23.3431L65.2611 22.4371H66.8277L67.3118 20.9714L67.7959 22.4371H69.3622L68.0952 23.3431ZM70.611 20.0272L69.6906 18.7803L68.1999 19.2567L69.121 18.0099L68.1999 16.7629L69.6906 17.2393L70.6114 15.9924V17.5338L72.102 18.0093L70.6114 18.4858V20.026L70.611 20.0272ZM74.529 14.6312L74.045 16.0971L73.5609 14.6313H71.9939L73.2616 13.7254L72.7775 12.2594L74.045 13.1653L75.3124 12.2593L74.8281 13.7264L76.0958 14.6324H74.5289L74.529 14.6312ZM79.4663 12.1563L78.5459 13.4034V11.8625L77.0553 11.3861L78.5459 10.9096V9.36847L79.4669 10.6156L80.9569 10.1391L80.0359 11.3861L80.957 12.6329L79.4663 12.1563ZM85.7227 10.7435L86.2068 12.2094L84.9393 11.3034L83.6718 12.2094L84.1558 10.7442L82.8884 9.83816H84.4551L84.9392 8.3723L85.4233 9.83816H86.9902L85.7227 10.7435ZM91.3326 11.8625V13.4038L90.4121 12.1567L88.9216 12.6332L89.8425 11.3863L88.9216 10.1398L90.4122 10.6162L91.3333 9.36847V10.9096L92.8239 11.3861L91.3326 11.8625ZM101.729 27.4808L103.219 27.9573L104.14 26.7102V28.2513L105.63 28.7278L104.14 29.2042V30.7453L103.22 29.4983L101.729 29.9747L102.651 28.7278L101.729 27.4808ZM95.8335 16.0977L95.3494 14.6319H93.7829L95.0497 13.7264L94.5666 12.2604L95.8336 13.1664L97.1006 12.2606L96.6176 13.7264L97.8848 14.6324H96.3179L95.8335 16.0977ZM99.2676 20.0276V18.4864L97.777 18.01L99.2676 17.5346V15.9925L100.188 17.2395L101.679 16.763L100.758 18.01L101.679 19.2571L100.188 18.7807L99.2676 20.0276ZM102.082 22.4375L102.566 20.9718L103.05 22.4375H104.618L103.351 23.3435L103.835 24.8094L102.567 23.9038L101.3 24.8098L101.784 23.3439L100.515 22.4379L102.082 22.4375ZM103.051 35.0174L102.567 36.4833L102.083 35.0174H100.515L101.784 34.1114L101.3 32.6456L102.567 33.5517L103.835 32.6456L103.351 34.1114L104.618 35.0174H103.051ZM93.2664 41.7985C93.3768 41.6405 93.5562 41.2074 93.2195 40.4044L92.2023 37.7129C92.0642 37.3688 92.3665 37.1609 92.5694 37.3868C92.5694 37.3868 94.4922 39.568 94.989 40.4787L95.9371 42.0271C96.7529 42.079 99.0041 42.1393 101.171 42.1393C100.953 41.9261 100.751 41.697 100.568 41.454C96.8702 36.9438 94.5251 34.4349 94.5016 34.4101C93.7523 33.6086 93.4059 33.4545 92.8343 33.1984C92.7514 33.1614 92.6618 33.1215 92.5693 33.0783V33.7635C92.5717 33.7838 92.5667 33.8042 92.5551 33.8211C92.5434 33.8379 92.526 33.8501 92.5059 33.8552C92.4859 33.8604 92.4647 33.8582 92.4461 33.8492C92.4276 33.8401 92.413 33.8247 92.4051 33.8059L86.9687 24.4103L86.9536 24.3806C86.7269 23.9381 86.3927 23.5575 85.9808 23.2725L85.4504 22.9057L82.8568 28.7921C82.9499 28.792 83.0415 28.8147 83.1234 28.8582C83.2053 28.9016 83.275 28.9644 83.3261 29.041C83.3772 29.1175 83.4081 29.2054 83.4162 29.2966C83.4242 29.3879 83.409 29.4796 83.3721 29.5637L80.9759 35.0171H83.1755C84.0256 35.017 84.8676 35.18 85.6544 35.497L86.2342 35.7309C86.2342 35.7309 84.4849 39.2717 84.4849 41.136C84.4874 41.4751 84.5355 41.8123 84.6278 42.1389H88.6599L88.4733 41.0213C90.055 41.3688 91.6553 41.6285 93.2666 41.7991L93.2664 41.7985ZM62.1542 47.5359C62.1542 43.8936 58.2292 42.1396 53.566 42.1396C48.5775 42.1396 44.0009 44.3148 42.3211 47.6875C41.8574 48.5862 41.6164 49.5801 41.6177 50.588C41.5967 51.4594 41.8417 52.3169 42.3211 53.0497C43.0409 54.0952 44.3263 54.7532 46.212 54.7532C48.5265 54.7532 50.3608 53.5049 50.3608 51.3297C50.3608 51.3297 50.3947 50.723 49.6751 50.723C49.0923 50.723 48.9378 51.1275 48.955 51.3297C49.0412 53.033 48.0122 54.3992 46.178 54.3992C44.1215 54.3992 43.2638 52.6787 43.2638 50.8411C43.2638 47.0803 46.1437 44.5842 49.1436 43.5051C50.5455 42.984 52.0343 42.7264 53.5327 42.7457C56.9269 42.7457 59.7045 44.0276 59.7045 47.4682C59.7045 50.3346 57.2532 52.78 54.3216 52.9994L54.4415 52.6116C55.0417 50.5033 55.7787 48.1932 56.9784 46.4898C57.0474 46.388 57.1666 46.2198 57.3043 46.0513L57.133 45.8489C56.8765 46.002 56.6302 46.1709 56.3954 46.3547C50.7732 50.6721 50.6026 62.814 43.1105 62.814C42.8526 62.814 42.595 62.797 42.3394 62.7633C40.7796 62.5106 39.9563 61.4816 39.9563 60.0487C39.9563 59.762 40.0594 59.3737 40.0594 59.1549C40.0651 58.9593 39.9916 58.7695 39.8552 58.6272C39.7187 58.4849 39.5303 58.4018 39.3316 58.3962H39.2367C38.5683 58.3962 38.2938 58.9183 38.2766 59.6608C38.2255 61.8025 39.8364 63.0501 42.3224 63.287C42.5965 63.3037 42.8708 63.3205 43.1623 63.3205C49.0075 63.3205 52.5901 58.9696 54.1158 53.6912C54.8887 53.602 55.6517 53.4441 56.3956 53.2193C59.1041 52.4765 62.1542 50.6898 62.1542 47.5359ZM117.833 48.8004H115.776L115.313 49.863L114.507 51.6506H113.548L113.255 52.2579H114.25L113.049 54.872C112.193 56.7101 110.856 58.5146 110.084 58.5146C109.913 58.5146 109.809 58.4467 109.809 58.2788C109.809 58.1109 109.861 57.9579 110.05 57.486C110.29 56.9291 110.685 56.12 110.976 55.5297C111.403 54.6695 112.09 53.3374 112.09 52.6798C112.09 52.0221 111.662 51.4991 110.821 51.4991C109.879 51.4991 109.021 52.0562 108.232 52.8649L108.747 51.6509H106.81L105.233 55.1924C104.599 56.4404 103.313 58.5142 102.507 58.5142C102.335 58.5142 102.266 58.4127 102.266 58.2444C102.283 58.0929 102.324 57.9449 102.386 57.8057C102.456 57.654 103.398 55.4786 103.398 55.4786L105.113 51.617H103.022L101.358 55.3775C100.845 56.5414 99.5423 58.5141 98.7015 58.5141C98.6667 58.5175 98.6315 58.514 98.598 58.504C98.5645 58.4939 98.5334 58.4775 98.5064 58.4556C98.4793 58.4337 98.4569 58.4068 98.4405 58.3764C98.424 58.346 98.4138 58.3127 98.4104 58.2784V58.2103C98.4104 58.0082 98.565 57.6369 98.6851 57.3669L99.5591 55.4785L101.359 51.6166H99.2855L98.8728 52.4936C98.5652 53.0837 98.0502 53.7751 97.2277 53.7751C96.833 53.7751 96.6453 53.6238 96.5597 53.4716C96.4396 52.173 95.5991 51.4815 94.3651 51.4815C92.6509 51.4815 91.4339 52.4765 90.6271 53.6909C90.099 54.5279 89.6843 55.4291 89.3934 56.3718C88.6561 57.5696 87.8851 58.4973 87.2678 58.4973C87.1133 58.4973 87.0103 58.4126 87.0103 58.2105C87.0103 58.0084 87.2163 57.553 87.2848 57.3837L88.6391 54.5507C89.0156 53.6742 89.274 53.1008 89.274 52.5272C89.274 51.92 88.8461 51.4816 88.1421 51.4816C87.165 51.4816 86.1019 52.0386 85.2622 52.9488C85.2906 52.8044 85.302 52.6571 85.2963 52.5101C85.2963 51.8351 84.9537 51.4811 84.2505 51.4811C83.3596 51.4811 82.4339 52.0045 81.5939 52.9484L82.1427 51.6324H80.2568L78.6629 55.1748C77.9087 56.8444 76.6916 58.4976 76.0057 58.4976C75.8517 58.4976 75.7487 58.4126 75.7487 58.2105C75.7487 57.8902 76.1087 57.0976 76.2462 56.7771L78.3549 52.0722C78.5091 51.7181 77.4976 51.4986 76.212 51.4986C74.8921 51.4986 73.5376 52.1397 72.5437 52.9658C71.841 53.5388 71.3266 53.826 71.0689 53.826C71.0286 53.8345 70.9865 53.8268 70.9519 53.8048C70.9172 53.7827 70.8929 53.748 70.8842 53.7084C70.8817 53.6972 70.8805 53.6858 70.8808 53.6744C70.8808 53.3876 71.5835 52.5777 71.5835 51.9538C71.5835 51.6673 71.4296 51.4815 71.0346 51.4815C70.281 51.4815 69.3891 52.19 68.7379 52.9316L69.2865 51.6329H67.435L65.841 55.1748C65.0863 56.8447 63.8351 58.5816 63.1501 58.5816C62.9956 58.5816 62.8934 58.4974 62.8934 58.2947C62.8934 57.9744 63.2361 57.199 63.4246 56.7937L65.5333 52.072C65.6875 51.718 64.6759 51.4984 63.3901 51.4984C61.4873 51.4984 59.6358 52.7633 58.6589 54.0619C57.5792 55.4612 56.8422 56.9454 56.8248 58.1598C56.808 59.1379 57.3215 59.7449 58.3504 59.7449C59.499 59.7449 60.4251 58.8513 60.956 58.1765C60.9246 58.31 60.9015 58.4452 60.8871 58.5815C60.8871 59.2556 61.1614 59.7448 62.0012 59.7448C62.7382 59.7448 63.7153 59.1377 64.5041 58.1764L63.8684 59.6107H65.8736L67.8452 55.209C68.498 53.7753 69.2351 53.0331 69.4402 53.0331C69.4514 53.031 69.463 53.0311 69.4742 53.0333C69.4853 53.0356 69.496 53.04 69.5054 53.0463C69.5149 53.0526 69.523 53.0607 69.5293 53.0701C69.5356 53.0795 69.54 53.09 69.5421 53.101C69.5431 53.1064 69.5436 53.1119 69.5436 53.1174C69.5436 53.2694 69.2353 53.6745 69.2353 54.0449C69.2353 54.4154 69.4403 54.7024 69.9896 54.7024C70.4175 54.7024 70.8978 54.4999 71.3264 54.2298C70.315 55.5797 69.6288 56.9958 69.6288 58.1605C69.6119 59.1387 70.1257 59.7456 71.1546 59.7456C72.2343 59.7456 73.2457 58.7337 73.7942 58.0591C73.7736 58.2157 73.7622 58.3733 73.76 58.5312C73.76 59.1892 74.1373 59.7456 74.9086 59.7456C75.7654 59.7456 76.4513 59.2224 77.3084 58.1942L76.6734 59.6103H78.7307L80.6161 55.411C81.439 53.5896 82.5524 52.6112 83.1017 52.6112C83.1675 52.6045 83.2335 52.6238 83.2849 52.6649C83.3363 52.706 83.3691 52.7655 83.376 52.8304C83.3759 52.8306 83.3759 52.8309 83.376 52.8312V52.8815C83.3533 53.0863 83.2954 53.2859 83.2047 53.4716L80.4986 59.6271H82.6067L84.5267 55.3434C85.3492 53.5055 86.258 52.6112 86.9435 52.6112C87.1492 52.6112 87.2352 52.713 87.2352 52.9318C87.2168 53.1665 87.1529 53.3957 87.0469 53.6067L85.1952 57.4851C85.0246 57.8583 84.92 58.2574 84.886 58.6653C84.886 59.2556 85.2116 59.7793 86.1377 59.7793C87.3386 59.7793 88.2462 58.8856 89.2743 57.5534V57.8399C89.3603 58.9024 89.96 59.8299 91.5542 59.8299C93.4398 59.8299 94.9662 58.5481 95.891 56.508C96.2408 55.7906 96.467 55.0209 96.5604 54.2305C96.7668 54.3335 96.9974 54.3804 97.2284 54.3664C97.5398 54.3698 97.8469 54.2942 98.12 54.1468L97.7943 54.8381C97.4161 55.614 97.0048 56.4741 96.6803 57.1998C96.475 57.6289 96.3529 58.092 96.3205 58.5652C96.3205 59.2901 96.7318 59.8134 97.571 59.8134C98.4101 59.8134 99.5599 59.0375 100.383 57.9415H100.4C100.345 58.168 100.316 58.3998 100.314 58.6327C100.314 59.24 100.503 59.8135 101.36 59.8135C102.355 59.8135 103.125 59.105 103.88 58.211L103.245 59.6278H105.32L106.983 55.9177C107.926 53.8267 108.868 52.562 109.742 52.562C109.814 52.5595 109.885 52.5843 109.939 52.6313C109.994 52.6783 110.028 52.744 110.035 52.8149V52.8648C110.035 53.2192 109.52 54.1804 109.057 55.1411C108.628 56.0181 108.302 56.6924 108.08 57.2157C107.874 57.6564 107.752 58.1307 107.72 58.615C107.72 59.2555 108.08 59.7447 108.886 59.7447C110.086 59.7447 111.303 58.5979 111.953 57.7376C111.806 58.15 111.726 58.5823 111.714 59.019C111.714 60.2001 112.433 60.7902 113.445 60.7902C114.117 60.7852 114.771 60.573 115.314 60.1834C116.102 59.6436 116.737 58.8341 117.269 58.0923L116.908 57.7547C116.411 58.4464 115.862 59.1046 115.296 59.509C114.998 59.757 114.624 59.8995 114.234 59.9137C113.806 59.9137 113.531 59.6942 113.531 59.1551C113.531 58.6159 113.788 57.89 114.183 56.9117C114.199 56.8953 114.765 55.647 115.297 54.45C115.743 53.4375 116.188 52.4598 116.274 52.2575H117.628L117.903 51.6502H116.565L117.833 48.8004ZM59.3608 58.5312C59.0695 58.5312 58.8633 58.4301 58.8633 58.0591C58.8804 57.064 59.7201 55.2931 60.7663 53.877C61.5033 52.8988 62.4631 52.1741 63.4917 52.1741L62.1888 55.0404C61.2121 57.199 60.1493 58.5312 59.3608 58.5312ZM72.1832 58.5312C71.892 58.5312 71.6857 58.4301 71.6694 58.0591C71.6865 57.064 72.5262 55.2931 73.5722 53.877C74.3089 52.8988 75.2692 52.1741 76.2976 52.1741L74.9945 55.0406C74.0006 57.2507 72.9892 58.5318 72.1829 58.5318L72.1832 58.5312ZM94.9476 52.9495C94.8965 54.0453 93.9193 56.6926 92.7711 58.2785C92.3088 58.9192 91.9139 59.1045 91.5718 59.1045C91.0913 59.1045 90.9533 58.7165 91.0223 58.1433C91.1243 57.1484 91.965 54.8214 93.1313 53.2189C93.6627 52.4938 94.0231 52.1902 94.4342 52.1902C94.8454 52.1902 94.9655 52.5277 94.9476 52.9495ZM126.942 51.6505L128.83 47.3613H126.595L124.707 51.6505H119.957L119.165 53.4492H123.916L122.028 57.7384H124.262L126.151 53.4492H130.9L131.691 51.6505H126.942Z" fill="white"/>
</svg>
