<svg width="41" height="41" viewBox="0 0 41 41" fill="none" xmlns="http://www.w3.org/2000/svg">
<path d="M0.915039 5.75562C0.915039 2.6923 3.39835 0.208984 6.46167 0.208984H35.4274C38.4907 0.208984 40.974 2.69229 40.974 5.75561V34.7213C40.974 37.7847 38.4907 40.268 35.4274 40.268H6.46167C3.39835 40.268 0.915039 37.7847 0.915039 34.7213V5.75562Z" fill="#333333"/>
<path d="M27.6218 22.2086C29.9156 23.129 31.627 24.3559 32.9249 25.799C33.2524 28.1357 31.4259 29.849 29.7567 30.901C25.8012 31.6002 20.1827 29.2633 15.5345 24.6152C10.8864 19.9666 8.54982 14.3485 9.24879 10.393C10.3007 8.72386 12.014 6.89732 14.3508 7.22499C15.7938 8.52314 17.0209 10.2347 17.9414 12.5286C18.0945 12.9105 18.007 13.3463 17.727 13.6479C17.2677 14.1425 16.4372 14.9759 15.1564 16.0509C14.8339 16.3217 14.7553 16.7842 14.9611 17.1516C15.8553 18.7474 17.0187 20.2918 18.4386 21.7119C19.8578 23.1312 21.4042 24.2968 22.9975 25.1934C23.3653 25.4003 23.8291 25.3215 24.1 24.9979C25.1743 23.7148 26.0074 22.8835 26.502 22.4239C26.8035 22.1433 27.2395 22.0556 27.6216 22.209L27.6218 22.2086Z" fill="#AEAEAE"/>
</svg>
