<svg width="171" height="69" viewBox="0 0 171 69" fill="none" xmlns="http://www.w3.org/2000/svg">
<path d="M0.711914 10.4097C0.711914 4.96207 5.09002 0.545898 10.4907 0.545898H161.084C166.484 0.545898 170.862 4.96207 170.862 10.4097V58.7423C170.862 64.1899 166.484 68.6061 161.084 68.6061H10.4907C5.09002 68.6061 0.711914 64.1899 0.711914 58.7423V10.4097Z" fill="#00A8E1"/>
<path d="M96.1695 29.9135C96.2629 29.595 96.3562 29.2925 96.4496 28.9739C97.1649 26.5053 97.8801 24.0523 98.595 21.5834L98.6884 21.2965C98.7285 21.1606 98.811 21.0419 98.9232 20.9586C99.0354 20.8752 99.1712 20.8318 99.3097 20.8349H101.673C102.264 20.8349 102.389 21.01 102.186 21.5834L101.254 24.1158C100.212 26.8873 99.1701 29.6747 98.1284 32.4464C98.0972 32.542 98.0508 32.6372 98.0197 32.7328C97.9658 32.8966 97.86 33.0372 97.7192 33.1324C97.5784 33.2276 97.4107 33.272 97.2425 33.2585C96.558 33.2427 95.874 33.2427 95.1905 33.2585C94.7084 33.2745 94.4287 33.0512 94.2576 32.6053C93.8687 31.5543 93.4647 30.4871 93.076 29.4358C92.1431 26.935 91.1947 24.4344 90.2619 21.9178C90.1712 21.7193 90.1033 21.5106 90.0596 21.296C90.0128 20.9778 90.1219 20.8183 90.4327 20.8183C91.3191 20.8025 92.205 20.8183 93.076 20.8183C93.4488 20.8183 93.6202 21.0732 93.7134 21.4078C93.8845 22.013 94.0553 22.6343 94.242 23.2394C94.8795 25.4535 95.5013 27.6833 96.1387 29.8975C96.1233 29.9133 96.1386 29.9135 96.1695 29.9135Z" fill="white"/>
<path d="M107.178 32.7838C107.147 33.1022 107.007 33.2458 106.696 33.2615C105.856 33.2775 105.032 33.2775 104.192 33.2615C103.882 33.2615 103.742 33.1022 103.71 32.7996C103.698 32.6993 103.693 32.5982 103.695 32.497V21.4751C103.71 20.9812 103.835 20.8385 104.316 20.8385H106.555C107.037 20.8385 107.178 20.9818 107.178 21.4751L107.178 32.7838Z" fill="white"/>
<path d="M105.452 15.1183C105.766 15.0918 106.082 15.1466 106.37 15.2776C106.667 15.3924 106.926 15.5936 107.114 15.8568C107.301 16.1199 107.41 16.4334 107.427 16.7588C107.551 18.2081 106.603 18.9407 105.343 18.9089C105.171 18.9034 104.999 18.882 104.83 18.8451C103.866 18.6063 103.369 17.8417 103.462 16.743C103.54 15.8671 104.208 15.2139 105.126 15.1344C105.233 15.1133 105.343 15.1077 105.452 15.1183Z" fill="white"/>
<path d="M147.867 26.0625V26.1263C147.835 26.0968 147.813 26.0586 147.802 26.0163C147.791 25.974 147.792 25.9293 147.805 25.8876V25.7601C147.805 25.758 147.805 25.7559 147.806 25.7539C147.807 25.752 147.808 25.7502 147.809 25.7487C147.811 25.7472 147.812 25.746 147.814 25.7452C147.816 25.7444 147.818 25.7439 147.82 25.744H147.805V25.585H147.836C147.836 25.5688 147.82 25.5688 147.82 25.553C147.787 25.2514 147.73 24.9531 147.649 24.6611C147.074 22.559 145.783 21.1729 143.684 20.6311C142.711 20.3953 141.702 20.3574 140.715 20.5198C138.616 20.8385 137.108 21.9854 136.377 24.0239C135.667 25.9659 135.672 28.1065 136.392 30.0445C137.014 31.8124 138.259 32.9275 140.046 33.3894C141.002 33.6334 141.994 33.6875 142.969 33.5487C146.234 33.1505 147.587 30.6176 147.805 28.4199H147.789V28.1966C147.774 28.1013 147.758 28.0215 147.851 27.9578V27.9894C147.855 27.9655 147.866 27.9433 147.882 27.9257V26.0945C147.882 26.0787 147.867 26.0787 147.867 26.0625ZM144.135 29.0888C144.044 29.4207 143.897 29.7335 143.7 30.0127C143.53 30.2577 143.309 30.4617 143.054 30.6103C142.799 30.7589 142.515 30.8485 142.223 30.8729C141.928 30.91 141.629 30.8993 141.337 30.8411C141.016 30.7792 140.716 30.638 140.461 30.4298C140.206 30.2215 140.005 29.9526 139.875 29.6465C139.643 29.1512 139.501 28.617 139.455 28.0698C139.377 27.1299 139.362 26.1897 139.58 25.2664C139.664 24.8954 139.805 24.5406 139.999 24.2154C140.167 23.9333 140.399 23.6965 140.675 23.5248C140.951 23.353 141.263 23.2513 141.585 23.2281C141.88 23.1909 142.179 23.2016 142.471 23.2599C142.777 23.3227 143.064 23.4576 143.309 23.6539C143.555 23.8502 143.752 24.1025 143.886 24.3908C144.152 24.954 144.305 25.5659 144.337 26.1906C144.358 26.4768 144.363 26.7639 144.353 27.0507C144.398 27.7379 144.325 28.4279 144.135 29.0888Z" fill="white"/>
<path d="M120.611 15.2298H118.45C117.86 15.2298 117.75 15.3416 117.75 15.9466V21.1074C117.75 21.2188 117.797 21.3295 117.719 21.4418C117.58 21.4259 117.501 21.3302 117.393 21.2667C115.776 20.295 114.081 20.1197 112.371 20.932C111.174 21.5056 110.427 22.5409 109.945 23.7673C109.479 24.9458 109.37 26.1883 109.401 27.4466C109.4 28.6239 109.666 29.7854 110.178 30.8391C110.769 32.0019 111.624 32.8939 112.868 33.2762C114.563 33.8176 116.148 33.5468 117.595 32.4472C117.704 32.3834 117.766 32.2718 117.906 32.24C117.986 32.4175 118.043 32.6049 118.077 32.7975C118.106 32.9217 118.176 33.0318 118.275 33.11C118.374 33.1881 118.496 33.2295 118.621 33.2275H118.994C119.554 33.2275 120.098 33.2437 120.641 33.2275C121.077 33.2275 121.201 33.0842 121.217 32.6224V15.8352C121.202 15.3416 121.078 15.2298 120.611 15.2298ZM117.766 26.9529V29.8516C117.779 29.9437 117.762 30.0376 117.717 30.1184C117.671 30.1992 117.601 30.2623 117.517 30.2978C116.778 30.7304 115.919 30.8984 115.076 30.7755C114.725 30.7358 114.389 30.6073 114.099 30.4016C113.808 30.1958 113.573 29.9193 113.412 29.597C113.169 29.0939 113.021 28.5479 112.977 27.9881C112.86 26.9867 112.923 25.9717 113.163 24.9937C113.238 24.7221 113.342 24.4602 113.475 24.2132C113.637 23.9086 113.872 23.6511 114.157 23.4645C114.443 23.2779 114.77 23.1683 115.108 23.146C115.929 23.0717 116.754 23.2201 117.502 23.5762C117.592 23.6097 117.669 23.6735 117.72 23.7573C117.771 23.8411 117.793 23.94 117.782 24.0381C117.75 25.0256 117.766 25.9815 117.766 26.9529Z" fill="white"/>
<path d="M130.002 28.2105C130.904 28.1467 131.805 27.9717 132.614 27.5256C133.019 27.3224 133.372 27.0251 133.645 26.6572C133.917 26.2894 134.102 25.8613 134.184 25.4072C134.296 24.8282 134.291 24.2321 134.169 23.6553C133.842 22.2216 132.956 21.3295 131.619 20.8677C130.869 20.6324 130.086 20.5301 129.302 20.5651C126.69 20.6289 124.7 21.9828 123.892 24.6587C123.348 26.4267 123.425 28.2264 123.954 29.9946C124.498 31.8101 125.742 32.9095 127.515 33.4033C128.277 33.5937 129.062 33.6741 129.847 33.6422C130.989 33.6241 132.12 33.4031 133.189 32.9891C133.64 32.814 133.749 32.6547 133.749 32.1608V31.0139C133.734 30.5523 133.547 30.3929 133.096 30.5043C132.754 30.6 132.428 30.6794 132.086 30.7592C131.042 31.0189 129.957 31.0569 128.898 30.8707C127.841 30.6635 127.126 30.0417 126.846 28.9593C126.766 28.6403 126.708 28.3155 126.675 27.9877C126.749 27.9814 126.824 27.9923 126.893 28.0196C127.917 28.2182 128.962 28.2824 130.002 28.2105ZM126.752 25.6621C126.862 25.0403 127.001 24.4356 127.374 23.9261C127.949 23.1455 128.742 22.9223 129.644 23.0179C129.722 23.0179 129.784 23.0497 129.861 23.0497C130.949 23.2251 131.214 24.1169 131.012 24.977C130.856 25.6143 130.343 25.8532 129.768 25.9645C129.451 26.0312 129.127 26.058 128.804 26.0443C128.174 26.0314 127.546 25.9782 126.922 25.885C126.784 25.869 126.721 25.8054 126.752 25.6621Z" fill="white"/>
<path d="M85.0794 54.265C84.2311 54.2177 83.3825 54.1859 82.534 54.1226C80.267 53.9487 78.0163 53.5974 75.8017 53.0715C68.1675 51.2557 61.4669 47.608 55.6205 42.304C55.0763 41.8103 54.5632 41.3008 54.0346 40.7908C53.9057 40.6725 53.8048 40.5257 53.7394 40.3615C53.6946 40.2561 53.6811 40.1396 53.7004 40.0265C53.7198 39.9133 53.7712 39.8084 53.8482 39.7249C53.9244 39.6379 54.0252 39.5773 54.1365 39.5516C54.2479 39.5259 54.3643 39.5364 54.4696 39.5816C54.609 39.641 54.7442 39.7103 54.8742 39.7889C60.452 43.3241 66.5539 45.9063 72.9409 47.4345C75.0865 47.944 77.2477 48.3422 79.4244 48.629C82.549 49.0268 85.6994 49.1706 88.8461 49.0592C90.5365 49.0034 92.223 48.8598 93.8992 48.629C97.8208 48.1161 101.684 47.2147 105.436 45.9374C107.406 45.2755 109.337 44.499 111.22 43.6116C111.504 43.4513 111.837 43.4059 112.153 43.4845C112.399 43.5487 112.612 43.7103 112.743 43.934C112.874 44.1578 112.913 44.4255 112.852 44.6789C112.833 44.7505 112.807 44.82 112.774 44.8862C112.652 45.126 112.476 45.3333 112.262 45.4915C110.469 46.9299 108.542 48.1837 106.509 49.2346C102.666 51.2237 98.5671 52.6448 94.3348 53.4555C91.9043 53.9 89.4466 54.1713 86.9795 54.2673H86.9651V54.3311H85.0994V54.2673L85.0794 54.265ZM113.692 38.7361C114.718 38.768 115.73 38.8317 116.724 39.1025C117.002 39.1795 117.272 39.2808 117.533 39.4052C117.706 39.4794 117.857 39.5998 117.969 39.7539C118.081 39.908 118.151 40.0901 118.171 40.2813C118.233 40.7349 118.249 41.1939 118.218 41.6509C118.013 44.371 117.194 47.005 115.823 49.3441C115.328 50.1851 114.721 50.9516 114.019 51.6218C113.88 51.766 113.709 51.8751 113.522 51.9405C113.226 52.0202 113.04 51.8607 113.024 51.5581C113.038 51.3945 113.075 51.2336 113.133 51.0804C113.677 49.5832 114.206 48.102 114.626 46.5568C114.872 45.7132 115.049 44.8501 115.155 43.9764C115.191 43.6592 115.196 43.3392 115.17 43.021C115.164 42.7577 115.076 42.5032 114.92 42.2942C114.763 42.0852 114.546 41.9326 114.299 41.8583C113.816 41.6986 113.314 41.6022 112.807 41.5714C111.379 41.5075 109.948 41.5715 108.531 41.7627L106.649 42.0022C106.447 42.0179 106.26 42.0022 106.152 41.8109C106.106 41.7206 106.086 41.6188 106.094 41.5173C106.102 41.4158 106.138 41.3188 106.198 41.2376C106.322 41.0576 106.481 40.9057 106.665 40.7914C107.815 39.9476 109.106 39.4379 110.474 39.1038C111.534 38.8855 112.611 38.7624 113.692 38.7361Z" fill="white"/>
<path d="M35.3769 25.7091C35.3096 24.883 35.1045 24.0748 34.7707 23.3196C34.1332 21.9499 33.1537 20.9465 31.6611 20.5958C29.9508 20.2137 28.4114 20.5958 27.0122 21.6633C26.9166 21.7604 26.8064 21.841 26.6857 21.9021C26.6547 21.8859 26.6234 21.8702 26.6234 21.8541C26.5769 21.6947 26.5458 21.5357 26.499 21.3764C26.3746 20.9782 26.219 20.8349 25.7996 20.8349C25.333 20.8349 24.851 20.8507 24.3846 20.8349C24.027 20.8187 23.7006 20.8664 23.4517 21.1533C23.4517 26.728 23.4517 32.3189 23.467 37.8774C23.6693 38.2123 23.9802 38.2755 24.3378 38.2598C24.8978 38.2441 25.4574 38.2598 26.017 38.2598C26.9967 38.2598 26.9967 38.2598 26.9967 37.2723V32.7331C26.9967 32.6217 26.9499 32.4943 27.0587 32.3985C27.8406 33.0201 28.7788 33.4013 29.7641 33.4975C31.1323 33.641 32.3763 33.2903 33.4179 32.3347C34.1814 31.6138 34.7401 30.6947 35.0349 29.6748C35.4547 28.3688 35.486 27.047 35.3769 25.7091ZM77.5588 28.0503C78.7239 28.2731 79.9177 28.2893 81.0882 28.0982C81.7682 28.0074 82.4265 27.7915 83.0316 27.4609C83.7312 27.0464 84.2442 26.4737 84.4622 25.6773C85.0064 23.6703 84.1668 21.6473 82.1301 20.8987C81.1341 20.5601 80.0763 20.4566 79.0358 20.5959C76.5792 20.8828 74.9778 22.2687 74.2469 24.6736C73.7338 26.3143 73.7959 27.9866 74.2159 29.6431C74.7601 31.7615 76.1282 33.02 78.1961 33.4658C79.3778 33.7369 80.5751 33.6889 81.7565 33.4977C82.3835 33.3917 82.9983 33.2209 83.5917 32.9881C83.9494 32.8448 84.1359 32.6217 84.1203 32.2075C84.1049 31.8255 84.1203 31.4272 84.1203 31.029C84.1203 30.5515 83.9336 30.4073 83.4831 30.5195C83.0325 30.6317 82.5967 30.7267 82.1457 30.8221C81.1823 31.0236 80.1902 31.0345 79.2228 30.8541C77.9012 30.583 77.0461 29.4203 77.1237 27.9868C77.2697 28.0003 77.415 28.0214 77.5588 28.0503ZM56.1647 33.2749H54.0811C53.5369 33.2749 53.397 33.1156 53.397 32.5741V21.52C53.3972 21.3911 53.413 21.2627 53.4438 21.1378C53.4766 21.0472 53.5362 20.9694 53.6142 20.9151C53.6922 20.8609 53.7848 20.8329 53.8791 20.8352H55.8225C56.1024 20.8352 56.2734 21.0103 56.3667 21.2811C56.4443 21.5041 56.4911 21.7111 56.569 21.95C56.7245 21.95 56.8179 21.8387 56.9267 21.7749C57.782 21.2335 58.6836 20.7715 59.6944 20.5803C60.464 20.421 61.2569 20.421 62.0265 20.5803C62.7615 20.7407 63.4076 21.1858 63.8299 21.8226C63.8571 21.8631 63.8884 21.9005 63.9233 21.9342C63.9078 21.95 63.9233 21.95 63.939 21.9819C64.3277 21.7429 64.7318 21.488 65.1516 21.2654C66.2389 20.6856 67.4565 20.4108 68.6809 20.4686C69.5673 20.5166 70.3758 20.7715 70.9977 21.4405C71.5885 22.0622 71.807 22.8262 71.8685 23.6545C71.884 23.8296 71.884 24.0048 71.884 24.1959V32.4466C71.884 33.1633 71.7906 33.2589 71.0912 33.2589H69.1938C69.0693 33.2615 68.9447 33.2562 68.8208 33.243C68.7282 33.2318 68.6417 33.19 68.5743 33.1239C68.507 33.0577 68.4625 32.971 68.4476 32.8767C68.4217 32.7028 68.4113 32.5268 68.4165 32.351V24.9763C68.4327 24.6811 68.4011 24.3851 68.3231 24.1004C68.259 23.8592 68.1223 23.6448 67.9326 23.4876C67.7429 23.3304 67.5097 23.2383 67.2661 23.2245C66.3457 23.1666 65.4259 23.3473 64.5917 23.7498C64.5321 23.7664 64.4803 23.8046 64.4459 23.8574C64.4116 23.9101 64.3971 23.9737 64.405 24.0366V32.4154C64.4102 32.57 64.3998 32.7248 64.374 32.8773C64.3742 32.9289 64.3641 32.98 64.3445 33.0275C64.3248 33.075 64.2959 33.1179 64.2595 33.1537C64.2232 33.1894 64.1802 33.2172 64.133 33.2354C64.0859 33.2536 64.0356 33.2618 63.9853 33.2595C63.752 33.2755 63.5189 33.2755 63.2701 33.2755H61.6219C61.0465 33.2755 60.9224 33.1319 60.9224 32.5428V25.008C60.9273 24.7298 60.9011 24.4519 60.8445 24.1797C60.7915 23.9197 60.656 23.685 60.4592 23.5121C60.2623 23.3393 60.0151 23.2381 59.7562 23.2243C58.8188 23.1626 57.8817 23.3491 57.035 23.7658C56.9742 23.7843 56.9226 23.826 56.8908 23.8823C56.859 23.9386 56.8495 24.0051 56.8641 24.0684V32.5579C56.8642 33.1474 56.7398 33.2749 56.1647 33.2749ZM40.4301 33.2589H38.4089C38.2947 33.2615 38.1805 33.2562 38.067 33.243C37.9688 33.2328 37.8774 33.1871 37.809 33.1142C37.7406 33.0412 37.6998 32.9458 37.6938 32.8448C37.6807 32.7178 37.6754 32.5901 37.678 32.4625V21.6316C37.678 20.8987 37.7559 20.819 38.471 20.819H39.9636C40.3682 20.819 40.5544 20.9623 40.6635 21.3604C40.7726 21.7585 40.8658 22.1568 40.9588 22.5869C41.0664 22.5577 41.1602 22.4899 41.2231 22.3959C41.5037 22.1086 41.7995 21.8374 42.1092 21.5835C42.915 20.9444 43.9228 20.6325 44.9392 20.7076C45.3438 20.7234 45.4834 20.8509 45.5145 21.2491C45.5455 21.7906 45.5298 22.3481 45.5298 22.8896C45.5428 23.1078 45.5324 23.3268 45.4987 23.5427C45.4364 23.8296 45.3278 23.941 45.0479 23.9728C44.8352 23.9835 44.6222 23.9782 44.4103 23.9571C43.3686 23.8615 42.3583 24.0684 41.3786 24.403C41.1608 24.4828 41.1608 24.6418 41.1608 24.8175V32.4628C41.1634 32.6011 41.1582 32.7395 41.1454 32.8773C41.1408 32.9757 41.0995 33.0685 41.03 33.1367C40.9606 33.2048 40.8683 33.2431 40.7721 33.2436C40.6586 33.2568 40.5444 33.2621 40.4302 33.2595L40.4301 33.2589ZM49.8211 33.2271H47.6599C47.587 33.2297 47.514 33.2243 47.4421 33.2112C47.3355 33.2044 47.2348 33.159 47.1579 33.083C47.081 33.0071 47.0329 32.9056 47.0224 32.7967C47.0095 32.6698 47.0044 32.5422 47.0069 32.4146C47.0224 30.6464 47.0224 28.8309 47.0224 27.0151V21.361C47.0381 20.9789 47.1778 20.8356 47.5508 20.8196C48.3594 20.8038 49.1679 20.8038 49.9763 20.8196C50.334 20.8196 50.4429 20.931 50.474 21.2973C50.4868 21.4351 50.492 21.5735 50.4894 21.7118V32.3198C50.4894 32.4949 50.474 32.67 50.4584 32.8454C50.4512 32.9428 50.4092 33.0341 50.3403 33.1017C50.2715 33.1693 50.1807 33.2085 50.0854 33.2118C49.9979 33.2247 49.9095 33.2299 49.8211 33.2271ZM31.6611 29.0061C31.5554 29.4957 31.3058 29.9403 30.946 30.2801C30.549 30.6344 30.0418 30.832 29.5154 30.8376C28.7273 30.8862 27.9415 30.7098 27.2454 30.3281C27.1617 30.2908 27.0914 30.2279 27.0441 30.148C26.9967 30.0681 26.9747 29.9751 26.9811 29.8819V26.9991C26.9811 26.0436 26.9968 25.0879 26.9811 24.1322C26.9728 24.0263 26.9988 23.9206 27.055 23.8313C27.1112 23.7421 27.1946 23.6742 27.2922 23.6384C28.1472 23.2239 29.0333 23.0332 29.9663 23.2239C30.2876 23.2698 30.5921 23.3993 30.8506 23.6001C31.1092 23.8008 31.3133 24.0661 31.4434 24.3705C31.6775 24.881 31.8148 25.4323 31.848 25.9952C31.9408 27.0151 31.9408 28.0346 31.6611 29.0061ZM77.1701 25.6136C77.2206 25.2354 77.32 24.8657 77.4655 24.5143C77.9318 23.3515 78.9105 22.9534 79.9064 23.0171C80.1895 23.0333 80.4679 23.0979 80.7301 23.2083C80.9265 23.2941 81.0966 23.4327 81.2225 23.6093C81.3484 23.7859 81.4255 23.994 81.4455 24.2117C81.4922 24.4878 81.4762 24.7712 81.3987 25.04C81.2122 25.6136 80.7612 25.8525 80.2173 25.9639C79.8865 26.0465 79.5449 26.0734 79.2057 26.0436C78.5916 26.0434 77.9783 25.9954 77.3713 25.9002C77.138 25.8684 77.138 25.8684 77.1689 25.6136H77.1701ZM48.8266 15.1169C49.0749 15.1059 49.3229 15.1437 49.5573 15.2283C50.397 15.5152 50.8324 16.2646 50.7545 17.2352C50.7247 17.6375 50.5623 18.0175 50.2939 18.3127C50.0256 18.6079 49.6672 18.8009 49.2776 18.8599C48.9332 18.9237 48.5804 18.9237 48.2359 18.8599C47.3495 18.6848 46.6965 18.0161 46.7588 16.8689C46.8514 15.7382 47.582 15.1169 48.8266 15.1169Z" fill="white"/>
</svg>
