<svg width="39" height="41" viewBox="0 0 39 41" fill="none" xmlns="http://www.w3.org/2000/svg">
<g filter="url(#filter0_d_1970_10415)">
<path d="M33.5434 32.5129L27.3711 26.3405C29.6727 23.76 31.1025 20.3426 31.1025 16.6113C31.1025 8.5559 24.5466 2 16.4912 2C8.43579 2 1.87988 8.5559 1.87988 16.6113C1.87988 24.6667 8.43579 31.2226 16.4912 31.2226C19.3508 31.2226 22.0009 30.3856 24.2327 28.9908L30.6491 35.4072C31.0327 35.7908 31.5557 36 32.079 36C32.6019 36 33.1252 35.7908 33.5088 35.4072C34.3456 34.6052 34.3455 33.3148 33.5434 32.5129ZM5.95983 16.6114C5.95983 10.8226 10.6677 6.08007 16.4911 6.08007C22.3146 6.08007 26.9875 10.8226 26.9875 16.6114C26.9875 22.4001 22.2797 27.1426 16.4911 27.1426C10.7025 27.1426 5.95983 22.4348 5.95983 16.6114Z" fill="white" fill-opacity="0.3" shape-rendering="crispEdges"/>
</g>
<defs>
<filter id="filter0_d_1970_10415" x="0.519883" y="0.64" width="37.7007" height="39.44" filterUnits="userSpaceOnUse" color-interpolation-filters="sRGB">
<feFlood flood-opacity="0" result="BackgroundImageFix"/>
<feColorMatrix in="SourceAlpha" type="matrix" values="0 0 0 0 0 0 0 0 0 0 0 0 0 0 0 0 0 0 127 0" result="hardAlpha"/>
<feOffset dx="1.36" dy="1.36"/>
<feGaussianBlur stdDeviation="1.36"/>
<feComposite in2="hardAlpha" operator="out"/>
<feColorMatrix type="matrix" values="0 0 0 0 0 0 0 0 0 0 0 0 0 0 0 0 0 0 0.25 0"/>
<feBlend mode="normal" in2="BackgroundImageFix" result="effect1_dropShadow_1970_10415"/>
<feBlend mode="normal" in="SourceGraphic" in2="effect1_dropShadow_1970_10415" result="shape"/>
</filter>
</defs>
</svg>
