<svg width="18" height="17" viewBox="0 0 18 17" fill="none" xmlns="http://www.w3.org/2000/svg">
<path d="M8.65891 1.42228C8.766 1.09484 9.22921 1.09484 9.33631 1.42228L10.7696 5.8046C10.8176 5.95109 10.9542 6.05018 11.1083 6.05018H15.7417C16.0875 6.05018 16.2306 6.49313 15.9503 6.6955L12.2059 9.39806C12.0801 9.4888 12.0275 9.65042 12.0757 9.79779L13.5069 14.1735C13.6141 14.5015 13.2394 14.7752 12.9596 14.5733L9.20616 11.8642C9.08165 11.7743 8.91357 11.7743 8.78905 11.8642L5.03558 14.5733C4.75584 14.7752 4.38107 14.5015 4.48832 14.1735L5.91951 9.79779C5.96771 9.65042 5.91509 9.4888 5.78936 9.39806L2.04496 6.69549C1.76458 6.49313 1.90774 6.05018 2.25352 6.05018H6.88687C7.041 6.05018 7.17766 5.95109 7.22557 5.8046L8.65891 1.42228Z" fill="url(#paint0_linear_515_4156)"/>
<defs>
<linearGradient id="paint0_linear_515_4156" x1="7.56273" y1="6.44481" x2="13.2499" y2="15.0321" gradientUnits="userSpaceOnUse">
<stop stop-color="#FFDA1A"/>
<stop offset="1" stop-color="#C39800"/>
</linearGradient>
</defs>
</svg>
