<svg width="33" height="28" viewBox="0 0 33 28" fill="none" xmlns="http://www.w3.org/2000/svg">
<path opacity="0.7" fill-rule="evenodd" clip-rule="evenodd" d="M16.202 8.73195C14.8965 1.85703 23.1641 -2.23257 28.0361 2.72774C28.0361 2.72774 30.2111 2.1186 32.1257 0.900319C32.1257 0.900319 31.4293 3.24969 29.08 4.72953C29.08 4.72953 31.6909 4.38196 32.822 3.68563C32.822 3.68563 31.6909 6.035 29.6019 6.90571C30.733 22.6562 13.7643 32.228 0.015625 24.3964C0.015625 24.3964 6.80336 24.744 9.67469 21.4379C9.67469 21.4379 5.49789 21.7854 3.4089 16.7391C3.4089 16.7391 4.97476 17.3483 6.54179 16.5648C6.54179 16.5648 1.66868 15.7812 1.23391 9.95141C1.23391 9.95141 2.79976 11.1697 4.54117 10.7349C4.54117 10.7349 -0.853891 7.51485 2.19181 1.68501C2.19181 1.68501 7.93562 8.99469 16.202 8.73313V8.73195Z" fill="white"/>
</svg>
