<svg width="41" height="41" viewBox="0 0 41 41" fill="none" xmlns="http://www.w3.org/2000/svg">
<g filter="url(#filter0_d_1970_10414)">
<path d="M19 2C9.62316 2 2 9.62316 2 19C2 28.3768 9.62316 36 19 36C28.3768 36 36 28.3768 36 19C36 9.62316 28.3768 2 19 2ZM19 11.7347C21.9349 11.7347 24.3327 14.1326 24.3327 17.0674C24.3327 20.0022 21.9348 22.4001 19 22.4001C16.0652 22.4001 13.6673 20.0022 13.6673 17.0674C13.6673 14.1326 16.0652 11.7347 19 11.7347ZM9.69474 29.3074V28.52C9.69474 26.2652 11.5199 24.4043 13.8104 24.4043H24.1893C26.4441 24.4043 28.305 26.2295 28.305 28.52V29.3074C25.8355 31.5263 22.5786 32.8863 18.9997 32.8863C15.4213 32.8863 12.1642 31.5263 9.69474 29.3074Z" fill="white" fill-opacity="0.3" shape-rendering="crispEdges"/>
</g>
<defs>
<filter id="filter0_d_1970_10414" x="0.64" y="0.64" width="39.44" height="39.44" filterUnits="userSpaceOnUse" color-interpolation-filters="sRGB">
<feFlood flood-opacity="0" result="BackgroundImageFix"/>
<feColorMatrix in="SourceAlpha" type="matrix" values="0 0 0 0 0 0 0 0 0 0 0 0 0 0 0 0 0 0 127 0" result="hardAlpha"/>
<feOffset dx="1.36" dy="1.36"/>
<feGaussianBlur stdDeviation="1.36"/>
<feComposite in2="hardAlpha" operator="out"/>
<feColorMatrix type="matrix" values="0 0 0 0 0 0 0 0 0 0 0 0 0 0 0 0 0 0 0.25 0"/>
<feBlend mode="normal" in2="BackgroundImageFix" result="effect1_dropShadow_1970_10414"/>
<feBlend mode="normal" in="SourceGraphic" in2="effect1_dropShadow_1970_10414" result="shape"/>
</filter>
</defs>
</svg>
