<svg width="33" height="24" viewBox="0 0 33 24" fill="none" xmlns="http://www.w3.org/2000/svg">
<path fill-rule="evenodd" clip-rule="evenodd" d="M6.81956 0.748971C9.99133 0.495654 13.7345 0.368408 16.5894 0.368408C19.4442 0.368408 23.1238 0.495654 26.3592 0.748971C30.1024 1.06591 32.0052 1.70098 32.513 5.44418C32.7663 7.15732 32.8936 9.50433 32.8936 11.915C32.8936 14.3256 32.7663 16.7362 32.513 18.3858C32.0052 22.1926 30.1024 22.7628 26.3592 23.081C23.1238 23.3979 19.4442 23.4615 16.5894 23.4615C13.7345 23.4615 9.99133 23.3979 6.81956 23.081C3.07636 22.764 1.10991 22.1926 0.602094 18.3858C0.411223 16.7362 0.285156 14.3256 0.285156 11.915C0.285156 9.50433 0.412401 7.15732 0.602094 5.44418C1.10991 1.70098 3.07636 1.06709 6.81956 0.748971Z" fill="#B6B6B6"/>
<path fill-rule="evenodd" clip-rule="evenodd" d="M13.2902 7.0302L21.7911 11.9151L13.2902 16.8636V7.0302Z" fill="#231F20"/>
</svg>
